<svg xmlns="http://www.w3.org/2000/svg" width="158" height="48.132" viewBox="0 0 158 48.132"><defs><style>.a{fill:#8f8f8f}</style></defs><path class="a" d="M12.337 26.651h10.855l-5.437-9.723z"/><path class="a" d="M60.522 29.539q0 2.824-1.049 3.828t-3.967 1H42.837q-2.922 0-3.97-1.012t-1.047-3.813v-15.61h3.862v17.351h14.933V13.929h3.907zm-33.017 4.832l-2.662-4.778H10.712l-2.613 4.78H4.237l11.822-20.441h3.535l12.1 20.436zM62.129.001L4.044.01A4.058 4.058 0 000 4.054v40.029a4.056 4.056 0 004.044 4.044l58.085-.009a3.964 3.964 0 003.961-3.961v-40.2a3.963 3.963 0 00-3.961-3.961m22.603 16.915h-10.88v6.6h10.88a2.592 2.592 0 001.74-.427 2.275 2.275 0 00.449-1.649v-2.449a2.218 2.218 0 00-.469-1.6 2.418 2.418 0 00-1.721-.472m-14.742 17.45V13.927h16.44a4.739 4.739 0 013.282.93 3.966 3.966 0 011 3.026v4.57a3.886 3.886 0 01-1 2.989 4.792 4.792 0 01-3.285.919H83.72l9.018 8.005h-5.156l-8.148-8h-5.582v8.005zm33.418-20.443v17.353h14.93V13.918h3.91v15.613q0 2.824-1.047 3.825c-.7.666-2.022 1-3.97 1h-12.669q-2.922 0-3.967-1.012c-.7-.674-1.049-1.945-1.049-3.813v-15.61zm31.394 3.788c0 .3.017.708.048 1.223.031.847.048 1.391.048 1.627v13.8h-3.179V13.92h3.179l10.175 13.25 9.351-13.258h3.58V34.35h-3.578v-13.8a15.921 15.921 0 01.233-2.827 15.65 15.65 0 01-.682 1.706 5.638 5.638 0 01-.66 1.12l-7.863 10.571h-1.015l-8.148-10.479a7.919 7.919 0 01-.8-1.269 11.148 11.148 0 01-.685-1.672"/></svg>