<svg xmlns="http://www.w3.org/2000/svg" width="160" height="33.38" viewBox="0 0 160 33.38"><path d="M0 0h36.149L0 33.38z" fill="#d8d8d8"/><path d="M18.07 0H0v16.69z" fill="#8e8e8e"/><path d="M125.785 7.195h8.506l-4.694 19.056h-8.508zM95.599 26.25h7.727l1.4-5.761 4.272 5.761h9.449l-6.809-9.677 10.589-9.379h-8.942l-6.77 5.836 1.445-5.836h-8.061zm-13.156 0l4.7-19.056h8.506l-4.7 19.056zm51.204 0h5.889l2.735-10.871 3.445 10.871h9.519l4.764-19.056h-6.282l-2.677 10.5-3.689-10.5h-8.965zM44.3 21.811a5.59 5.59 0 004.7-4.6s.547-3.3-.7-4.5a3.044 3.044 0 00-2.068-.735h-3.265l-2.348 9.84zm-12.916 4.438l4.763-19.056h12.781s8.8.7 7.881 9.613c-.025.259-.449 7.936-9.832 9.443zm38.457-7.993l-.872-4.879-2.673 4.879zm-5.916 4.366l-2.3 3.626h-5.603L66.641 7.195h9.712l3.377 19.056h-8.473l-.646-3.626z" fill="#bdbdbd"/></svg>