<svg xmlns="http://www.w3.org/2000/svg" width="158" height="32.252" viewBox="0 0 158 32.252"><path d="M10.171 19.492a4.6 4.6 0 01-1.291 3.322 4.265 4.265 0 01-3.194 1.338 4 4 0 01-2.767-1.056 5.322 5.322 0 01-1.581-3.164L3 19.55a3.275 3.275 0 00.89 2.086 2.641 2.641 0 001.935.757 2.364 2.364 0 001.831-.856 3 3 0 00.76-2.065 2.516 2.516 0 00-.689-1.788 6 6 0 00-2.046-1.24 7.923 7.923 0 01-2.8-1.73 3.427 3.427 0 01-.909-2.411 3.613 3.613 0 011.2-2.769 4.191 4.191 0 012.957-1.109 3.91 3.91 0 013.593 2.285l-1.4.9a2.5 2.5 0 00-3.9-.811 1.934 1.934 0 00-.7 1.5 1.737 1.737 0 00.582 1.323 6.6 6.6 0 001.984 1.1 7.183 7.183 0 012.974 1.925 4.355 4.355 0 01.9 2.842m17.167-9.022h-3.467V23.83h-1.754V10.467h-3.467V8.748h8.688zm20.508 5.822a6.174 6.174 0 00-1.624-4.342 5.383 5.383 0 00-7.967 0 6.63 6.63 0 000 8.684 5.383 5.383 0 007.967 0 6.173 6.173 0 001.624-4.342m1.756 0a7.828 7.828 0 01-2.18 5.528 6.916 6.916 0 01-10.361 0 8.1 8.1 0 010-11.056 6.916 6.916 0 0110.361 0 7.828 7.828 0 012.18 5.528m15.903-3.166q0-2.695-3.676-2.695h-.61v5.46h.764q3.524 0 3.522-2.765m2.705 10.706h-2.133l-4.1-6.377h-.764v6.377H59.45V8.747h2.7a5.485 5.485 0 013.653 1.12 3.883 3.883 0 011.325 3.141 4.479 4.479 0 01-.858 2.765 3.8 3.8 0 01-2.52 1.493zm23.561.002h-1.809l-1.525-9.78-4.359 10.1-4.359-10.1-1.526 9.778h-1.811l2.592-15.408 5.1 11.572 5.1-11.572zm17.365-5.501l-2.488-6.1-2.5 6.1zm4.233 5.5h-1.888l-1.607-3.781h-6.448l-1.611 3.781h-1.871l6.7-15.726zm20.816.321l-9.953-11.2v10.881h-1.673v-15.4l9.951 11.2V8.747h1.675zm22.171 0l-9.953-11.2v10.881h-1.673v-15.4l9.951 11.2V8.747h1.675z" fill="#1a1818"/><path d="M0 30.1h158v2.153H0zM0 0h158v2.153H0z" fill="#e50019"/></svg>