<svg xmlns="http://www.w3.org/2000/svg" width="158" height="48.132" viewBox="0 0 158 48.132"><path d="M57.365,802.694l10.855,0-5.437-9.723Z" transform="translate(-45.028 -776.043)"/><path d="M113.549,816.556q0,2.824-1.049,3.828t-3.967,1l-12.669,0q-2.922,0-3.97-1.012t-1.047-3.813V800.949h3.862V818.3l14.933,0V800.946h3.907Zm-33.017,4.832-2.662-4.778-14.131,0-2.613,4.78H57.264l11.822-20.441h3.535l12.1,20.436Zm34.624-34.37-58.085.009a4.058,4.058,0,0,0-4.044,4.044V831.1a4.056,4.056,0,0,0,4.044,4.044l58.085-.009a3.964,3.964,0,0,0,3.961-3.961v-40.2a3.963,3.963,0,0,0-3.961-3.961" transform="translate(-53.027 -787.017)"/><path d="M92.38,794.9l-10.88,0V801.5H92.38a2.592,2.592,0,0,0,1.74-.427,2.275,2.275,0,0,0,.449-1.649v-2.449a2.218,2.218,0,0,0-.469-1.6,2.418,2.418,0,0,0-1.721-.472m-14.742,17.45V791.916l16.44,0a4.739,4.739,0,0,1,3.282.93,3.966,3.966,0,0,1,1,3.026v4.57a3.886,3.886,0,0,1-1,2.989,4.792,4.792,0,0,1-3.285.919H91.368l9.018,8.005H95.23l-8.148-8H81.5v8.005Z" transform="translate(-7.649 -777.989)"/><path d="M91.893,791.914v17.353l14.93,0V791.911h3.91v15.613q0,2.824-1.047,3.825c-.7.666-2.022,1-3.97,1l-12.669,0q-2.922,0-3.967-1.012c-.7-.674-1.049-1.945-1.049-3.813V791.914Z" transform="translate(11.514 -777.993)"/><path d="M102.429,795.706c0,.3.017.708.048,1.223.031.847.048,1.391.048,1.627l0,13.8-3.179,0,0-20.439h3.179L112.7,805.167l9.351-13.258h3.58l0,20.438h-3.578v-13.8c0-.5.017-.99.057-1.462s.1-.924.176-1.365a15.65,15.65,0,0,1-.682,1.706,5.638,5.638,0,0,1-.66,1.12l-7.863,10.571-1.015,0-8.148-10.479a7.919,7.919,0,0,1-.8-1.269,11.148,11.148,0,0,1-.685-1.672" transform="translate(32.372 -777.997)"/></svg>