<svg xmlns="http://www.w3.org/2000/svg" width="45" height="58" viewBox="0 0 45 58"><defs><style>.a{fill:#29aae2}</style></defs><path class="a" d="M44.45 12.187l-.771-.771-10.1-10.1-.766-.766A1.891 1.891 0 0031.485 0H2.463C1.277 0 0 .916 0 2.926V56a2.291 2.291 0 001.838 1.91c.05.013.1.032.15.042a2.438 2.438 0 00.475.048h40.074a2.437 2.437 0 00.475-.048c.052-.01.1-.029.15-.042A2.291 2.291 0 0045 56V13.978a2.3 2.3 0 00-.55-1.791zM41.435 12H33V3.565zM2.463 56a.576.576 0 01-.2-.049.458.458 0 01-.263-.414V41h41v14.537a.46.46 0 01-.265.414.576.576 0 01-.2.049zM2 39V2.926C2 2.709 2.033 2 2.463 2h28.595a1.54 1.54 0 00-.058.391V14h11.609a1.532 1.532 0 00.39-.058V39z"/><path class="a" d="M15.542 44.744a3.438 3.438 0 00-1.128-.615 4.067 4.067 0 00-1.271-.205h-2.9V54h1.641v-3.637H13.1a4.314 4.314 0 001.449-.232 3.267 3.267 0 001.121-.656 2.913 2.913 0 00.725-1.046 3.572 3.572 0 00.26-1.388 2.751 2.751 0 00-.308-1.306 3.215 3.215 0 00-.808-.991zm-.622 3.329a1.649 1.649 0 01-.4.649 1.5 1.5 0 01-.54.335 1.808 1.808 0 01-.6.1h-1.5v-3.989h1.23a2.213 2.213 0 011.012.2 1.657 1.657 0 01.6.492 1.637 1.637 0 01.28.615 2.8 2.8 0 01.068.567 3.077 3.077 0 01-.15 1.033zM25.454 45.4a4.631 4.631 0 00-1.6-1.073 5.774 5.774 0 00-2.235-.4h-3.035V54H22.4a5.439 5.439 0 00.588-.048 4.036 4.036 0 00.875-.219 4.584 4.584 0 00.991-.513 3.478 3.478 0 00.923-.937 5.285 5.285 0 00.677-1.477 7.4 7.4 0 00.267-2.126 5.06 5.06 0 00-.314-1.757 4.436 4.436 0 00-.951-1.523zm-1.2 6.33a2.716 2.716 0 01-2.402 1.07h-1.627v-7.633h.957a5.034 5.034 0 011.914.308 3.066 3.066 0 011.169.807 2.661 2.661 0 01.581 1.114A5.234 5.234 0 0125 48.64a5.41 5.41 0 01-.738 3.09zM29.1 54h1.668v-4.539h4.211V48.34h-4.213v-3.172H35.4v-1.244h-6.3V54zm2.83-31.039a19.356 19.356 0 00-3.358.358 31.954 31.954 0 01-5.088-7.562c1.337-5.629.668-6.426.373-6.8-.314-.4-.757-1.049-1.261-1.049a4.932 4.932 0 00-1.016.172 1.921 1.921 0 00-1.134 1.215c-.707 1.653.263 4.471 1.261 6.643a67.126 67.126 0 01-3.788 10.75c-3.79 1.736-5.8 3.441-5.985 5.068A2.4 2.4 0 0013.047 34a1.605 1.605 0 00.967.326c.875 0 1.759-.67 2.782-2.107a28.373 28.373 0 002.383-4.251 47.915 47.915 0 018.828-2.822c1.58 1.517 2.995 2.285 4.211 2.285a2.655 2.655 0 002.22-1.191 2.022 2.022 0 00.39-2.16c-.385-.749-1.334-1.115-2.9-1.115zm-17.894 9.673c-.468-.359-.441-.6-.431-.692.062-.556.933-1.543 3.07-2.744-1.62 2.992-2.49 3.389-2.639 3.436zm8.2-22.922c.043-.014 1.045 1.1.1 3.216a2.4 2.4 0 01-.1-3.216zm-2.067 16.026a71.294 71.294 0 002.674-7.564 34.23 34.23 0 003.822 5.544 49.812 49.812 0 00-6.5 2.02zm12.9-.479a1.507 1.507 0 01-1.21.441c-.533 0-.732-.317-1.547-.944a14.587 14.587 0 011.811-.108c.889 0 1.052.131 1.175.2a1.552 1.552 0 01-.228.411z"/></svg>