<svg xmlns="http://www.w3.org/2000/svg" width="21" height="17.968" viewBox="0 0 21 17.968"><defs><style>.a{fill:#29aae2}</style></defs><path class="a" d="M20.465 12.181a.536.536 0 00-.535.535v2.044a2.141 2.141 0 01-2.138 2.139H3.208A2.141 2.141 0 011.07 14.76v-2.044a.535.535 0 00-1.07 0v2.044a3.212 3.212 0 003.208 3.208h14.585A3.211 3.211 0 0021 14.76v-2.044a.536.536 0 00-.535-.535z"/><path class="a" d="M15.911 7.227a.535.535 0 00-.755-.043l-4.121 3.684V.503a.536.536 0 00-1.07 0v10.365L5.844 7.184a.536.536 0 10-.713.8l4.478 4a1.332 1.332 0 001.78 0l4.478-4a.534.534 0 00.044-.754z"/></svg>