<svg xmlns="http://www.w3.org/2000/svg" width="160" height="33.38" viewBox="0 0 160 33.38"><defs><style>.a{fill:#d8d8d8;}.b{fill:#8e8e8e;}.c{fill:#bdbdbd;}</style></defs><g transform="translate(-255 -319)"><path class="a" d="M39.685,717.941H75.834l-36.149,33.38Z" transform="translate(215.315 -398.941)"/><path class="b" d="M57.755,717.941H39.685v16.69Z" transform="translate(215.315 -398.941)"/><path class="c" d="M106.622,721.639h8.506l-4.694,19.056h-8.508Z" transform="translate(274.163 -395.444)"/><path class="c" d="M88.824,740.694h7.727l1.4-5.761,4.272,5.761h9.449l-6.809-9.677,10.589-9.379H106.51l-6.77,5.836,1.445-5.836H93.124Z" transform="translate(261.775 -395.444)"/><path class="c" d="M82.062,740.694l4.7-19.056h8.506l-4.7,19.056Z" transform="translate(255.381 -395.444)"/><path class="c" d="M108.381,740.694h5.889l2.735-10.871,3.445,10.871h9.519l4.764-19.056h-6.282l-2.677,10.5-3.689-10.5h-8.965Z" transform="translate(280.266 -395.444)"/><path class="c" d="M68.733,736.256a5.59,5.59,0,0,0,4.7-4.6s.547-3.3-.7-4.5a3.044,3.044,0,0,0-2.068-.735H67.4l-2.348,9.84Zm-12.916,4.438,4.763-19.056H73.361s8.8.7,7.881,9.613c-.025.259-.449,7.936-9.832,9.443Z" transform="translate(230.567 -395.445)"/><path class="c" d="M82.3,732.7l-.872-4.879L78.755,732.7Zm-5.916,4.366-2.3,3.626H68.481L79.1,721.639h9.712l3.377,19.056H83.716l-.646-3.626Z" transform="translate(242.541 -395.444)"/></g></svg>