<svg xmlns="http://www.w3.org/2000/svg" width="24" height="14" viewBox="0 0 24 14"><defs><style>.a{fill:#29aae2}</style></defs><path class="a" d="M23.61 5.838a14.934 14.934 0 00-5.046-4.251 14.383 14.383 0 00-13.13 0 14.944 14.944 0 00-5.045 4.25 1.932 1.932 0 000 2.326 14.952 14.952 0 005.045 4.251 14.387 14.387 0 0013.13 0 14.957 14.957 0 005.046-4.251 1.93 1.93 0 000-2.325zM5.87 11.516a13.961 13.961 0 01-4.711-3.97.906.906 0 010-1.09A13.974 13.974 0 015.87 2.485a13.665 13.665 0 011.586-.691 7.128 7.128 0 000 10.414 13.43 13.43 0 01-1.586-.692zm6.129 1.485a5.92 5.92 0 01-5.827-6 5.92 5.92 0 015.827-6 5.92 5.92 0 015.827 6 5.92 5.92 0 01-5.827 6zM22.84 7.549a13.963 13.963 0 01-4.712 3.97 13.63 13.63 0 01-1.584.69 7.129 7.129 0 000-10.414 13.6 13.6 0 011.586.692 13.977 13.977 0 014.712 3.971.906.906 0 01-.002 1.088z"/><path class="a" d="M11.999 4.434a2.567 2.567 0 102.494 2.567 2.534 2.534 0 00-2.494-2.567zm0 4.129a1.563 1.563 0 111.517-1.562 1.542 1.542 0 01-1.517 1.562z"/></svg>