<svg xmlns="http://www.w3.org/2000/svg" width="158" height="28.529" viewBox="0 0 158 28.529"><defs><style>.a{fill:#8f8f8f;}</style></defs><g transform="translate(-255.16 -611)"><path class="a" d="M157.13,720.436a14.725,14.725,0,0,1,5.559,1.046,14.523,14.523,0,0,1,4.51,2.956,13.846,13.846,0,0,1,3.029,4.4,13.924,13.924,0,0,1,0,10.8,13.9,13.9,0,0,1-3.029,4.391,13.652,13.652,0,0,1-4.51,2.917,13.991,13.991,0,0,1-5.559,1.09H146.564v-27.6Zm3.5,21.728a7.7,7.7,0,0,0,2.679-1.829,9.019,9.019,0,0,0,2.335-6.1,8.876,8.876,0,0,0-.623-3.383,8.519,8.519,0,0,0-1.711-2.718,8.251,8.251,0,0,0-2.679-1.865,9.208,9.208,0,0,0-3.5-.662H152.2v17.259h4.931a8.525,8.525,0,0,0,3.5-.7" transform="translate(130.776 -108.97)"/><rect class="a" width="5.64" height="27.598" transform="translate(335.151 611.467)"/><path class="a" d="M195.8,737.485a7.3,7.3,0,0,1-7.6,5.85c-5.877,0-7.762-4.559-7.762-8.825s1.885-8.823,7.762-8.823a7.307,7.307,0,0,1,7.6,5.847h5.764c-1.125-6.779-6.126-11.289-13.157-11.289-8.009,0-13.82,5.865-13.82,14.265s5.811,14.265,13.82,14.265c7.031,0,12.033-4.513,13.157-11.289Z" transform="translate(171.258 -109.245)"/><rect class="a" width="5.64" height="27.598" transform="translate(407.52 611.467)"/><path class="a" d="M205.6,720.436V731.65H193.2V720.436h-5.635v27.6H193.2V736.583h12.4v11.451h5.635v-27.6Z" transform="translate(190.011 -108.969)"/><path class="a" d="M145.923,720.245a8.432,8.432,0,1,0,8.432,8.432,8.431,8.431,0,0,0-8.432-8.432m0,11.9a3.464,3.464,0,1,1,3.464-3.464,3.464,3.464,0,0,1-3.464,3.464" transform="translate(117.669 -109.245)"/><rect class="a" width="13.45" height="4.86" transform="translate(310.453 628.55)"/><path class="a" d="M166.653,720.435l-9.5,27.6h5.982l9.128-27.6Z" transform="translate(146.078 -108.971)"/><path class="a" d="M162.287,720.435l9.05,27.6h5.982l-9.419-27.6Z" transform="translate(153.491 -108.971)"/></g></svg>