<svg xmlns="http://www.w3.org/2000/svg" width="158" height="23.049" viewBox="0 0 158 23.049"><defs><style>.a{fill:#8f8f8f;}</style></defs><g transform="translate(-820.16 -324)"><path class="a" d="M235.768,722.241h4.548v6.969h.049l5.136-6.969h5.478l-6.311,7.947,6.8,9.121h-5.8l-5.306-7.752h-.049v7.752h-4.548Z" transform="translate(616.642 -395.237)"/><path class="a" d="M245.571,722.241H257.6v3.226h-7.484v3.524h7.069v3.228h-7.069v3.863h7.752v3.228h-12.3Z" transform="translate(624.616 -395.237)"/><path class="a" d="M254.054,722.241h5.8l5.772,11.592h.047l-.073-11.592h4.158v17.068h-5.649l-5.968-11.664h-.049l.147,11.664h-4.182Z" transform="translate(631.516 -395.237)"/><path class="a" d="M268.145,725.616h-4.207v-3.375H276.9v3.375h-4.207V739.31h-4.548Z" transform="translate(639.556 -395.237)"/><path class="a" d="M279.774,725.764h-.047l-2.2,6.675H281.8Zm-2.787-3.522h5.574l6.579,17.068h-4.987l-1.273-3.643h-6.409l-1.344,3.643h-4.621Z" transform="translate(644.9 -395.237)"/><path class="a" d="M284.492,725.616h-4.207v-3.375h12.962v3.375H289.04V739.31h-4.548Z" transform="translate(652.853 -395.237)"/><path class="a" d="M288.9,735.237a9.993,9.993,0,0,0,4.695,1.124c1.444,0,2.814-.294,2.814-1.663,0-3.179-8.072-1.175-8.072-7.384,0-4.109,4.011-5.235,7.435-5.235a14.472,14.472,0,0,1,4.4.636l-.294,3.522a9.169,9.169,0,0,0-3.79-.783c-1.151,0-3.056.1-3.056,1.59,0,2.764,8.07.9,8.07,7.067,0,4.427-3.718,5.625-7.509,5.625a17.949,17.949,0,0,1-5.087-.733Z" transform="translate(659.402 -395.37)"/><path class="a" d="M311.825,732.83c0,4.671-3.032,6.775-7.482,6.775s-7.484-2.1-7.484-6.775V722.241h4.548v9.831c0,2.25.611,4.158,2.936,4.158s2.934-1.908,2.934-4.158v-9.831h4.548Z" transform="translate(666.335 -395.238)"/><rect class="a" width="6.196" height="6.2" transform="translate(828.602 324)"/><rect class="a" width="6.196" height="6.202" transform="translate(828.602 340.847)"/><rect class="a" width="6.198" height="6.195" transform="matrix(0.864, -0.503, 0.503, 0.864, 820.16, 338.627)"/><rect class="a" width="6.199" height="6.198" transform="translate(820.173 332.376) rotate(-59.585)"/><rect class="a" width="6.196" height="6.199" transform="translate(834.785 340.864) rotate(-59.812)"/><rect class="a" width="6.199" height="6.199" transform="translate(834.761 330.168) rotate(-30.406)"/></g></svg>