<svg xmlns="http://www.w3.org/2000/svg" width="24" height="14" viewBox="0 0 24 14"><defs><style>.a{fill:#29aae2;}</style></defs><g transform="translate(-0.001 -4.999)"><path class="a" d="M23.611,10.837a14.934,14.934,0,0,0-5.046-4.251,14.383,14.383,0,0,0-13.13,0A14.944,14.944,0,0,0,.39,10.836a1.932,1.932,0,0,0,0,2.326,14.952,14.952,0,0,0,5.045,4.251,14.387,14.387,0,0,0,13.13,0,14.957,14.957,0,0,0,5.046-4.251,1.93,1.93,0,0,0,0-2.325ZM5.871,16.515a13.961,13.961,0,0,1-4.711-3.97.906.906,0,0,1,0-1.09A13.974,13.974,0,0,1,5.871,7.484a13.665,13.665,0,0,1,1.586-.691,7.128,7.128,0,0,0,0,10.414,13.43,13.43,0,0,1-1.586-.692ZM12,18a5.92,5.92,0,0,1-5.827-6A5.92,5.92,0,0,1,12,6a5.92,5.92,0,0,1,5.827,6A5.92,5.92,0,0,1,12,18Zm10.841-5.452a13.963,13.963,0,0,1-4.712,3.97,13.63,13.63,0,0,1-1.584.69,7.129,7.129,0,0,0,0-10.414,13.6,13.6,0,0,1,1.586.692,13.977,13.977,0,0,1,4.712,3.971A.906.906,0,0,1,22.841,12.545Z"/><path class="a" d="M12,9.433A2.567,2.567,0,1,0,14.494,12,2.534,2.534,0,0,0,12,9.433Zm0,4.129A1.563,1.563,0,1,1,13.517,12,1.542,1.542,0,0,1,12,13.562Z"/></g></svg>