<svg xmlns="http://www.w3.org/2000/svg" width="158" height="63.359" viewBox="0 0 158 63.359"><path d="M102.456 47.631a7.453 7.453 0 01-1.992 1.146 8.05 8.05 0 01-3.03.533 5.607 5.607 0 01-4.376-1.822 8.016 8.016 0 01-1.588-5.39c0-2.329.507-4.07 1.5-5.163a5.942 5.942 0 014.6-1.691 8.783 8.783 0 013.012.5 5.363 5.363 0 011.864 1.027 1.1 1.1 0 01.314.772v9.31a1.134 1.134 0 01-.3.775m5.305-25.174h-4.541c-.456 0-.463.528-.463.528v9.32l-.649-.342a7.789 7.789 0 00-2.193-.772 14.719 14.719 0 00-2.708-.221 12.039 12.039 0 00-8.618 3.094c-2.111 2.021-3.218 5-3.2 8.618a12.277 12.277 0 002.69 8.052c1.763 2.1 4.394 3.166 7.815 3.166 4.911 0 6.855-2.963 6.855-2.963l.013 2.873h5.485V23.002s.023-.546-.481-.546m-27.241 0h-4.444a.524.524 0 00-.541.641v4.772h5.48v-4.844a.492.492 0 00-.51-.569m72.648 26.075a.751.751 0 01-.407.759 10.635 10.635 0 01-5.272.9 3.821 3.821 0 01-3.619-2.736c-.062-.288-.6-3.614 2.61-4.659a11.684 11.684 0 016.167.157c.414.113.52.353.52.844zm-4.067-17.632c-6.438 0-8.705 3.9-9.421 5.776l-.25.677 2.142.731s1.385-3.959 6.842-3.732c5.516.224 4.87 4.739 4.826 5.46a16.178 16.178 0 00-10.232.463c-3.557 1.627-4.106 4.9-3.995 7.3.165 3.549 3.3 6.046 7.377 6.273 3.66.206 5.308-.595 6.821-2.111l-.041 2.067h4.831v-15.6c.1-2.69-1.8-7.3-8.9-7.3m-30.636 9.261c-.255-.008-.278-.257-.273-.381a5.923 5.923 0 011.624-3.264 5.987 5.987 0 014.3-1.681 5.609 5.609 0 013.807 1.341 6.076 6.076 0 011.853 3.339c.051.162.142.628-.239.628zm13.637-5.792a9.974 9.974 0 00-7.925-3.4 11.64 11.64 0 00-8.353 3.2 11.088 11.088 0 00-3.3 8.353 10.833 10.833 0 003.233 8.214c2.162 2.034 5.233 3.063 9.117 3.063 7.524 0 9.158-5.184 9.776-6.9l-1.946-.628c-1.732 3.164-5.622 3.354-7.892 3.207a8.126 8.126 0 01-4.26-1.5 5.993 5.993 0 01-2.347-3.984l-.106-.7h16.929c-.062-3.748-1.032-6.757-2.927-8.927M4.291 35.421c0-16.309 13.756-29.576 30.662-29.576a31.055 31.055 0 0125.832 13.749C56.633 7.983 45.138 0 32.2 0 15.533 0 1.976 13 1.976 28.981a27.958 27.958 0 003.055 12.577 28.539 28.539 0 01-.741-6.136m61.64-13h-5.519a.483.483 0 00-.525.561 27.692 27.692 0 01.255 4.322c0 5.4-.651 13.164-6.579 20.533l-.42.52s-3.555-24.865-3.629-25.357c0 0-.021-.579-.5-.579h-5.558c-.525 0-.492.556-.492.556-.129 2.875-1.732 26.816-19.2 30.682a19.906 19.906 0 0012.157-3.184 19.684 19.684 0 009.174-12.528s2.134 13.349 2.414 16.417l.018.2-.172.09A34.1 34.1 0 01.002 38.045a32.2 32.2 0 0031.47 25.315c17.812 0 28.4-14.909 30.229-25.5 0 0 2.4 15.442 2.461 15.946h7.287c-.108-.664-4.934-30.34-5.014-30.824 0 0-.026-.559-.5-.559m9.619 8.651v22.731l5.372-.008V31.073z" fill="#00a1ed"/></svg>