<svg xmlns="http://www.w3.org/2000/svg" width="158" height="42.307" viewBox="0 0 158 42.307"><path d="M140.085 42.026v-1.47a11.652 11.652 0 005.293-4.692 12.5 12.5 0 001.351-3.155 7.919 7.919 0 00.392-2.255 15.387 15.387 0 000-2.344 17.99 17.99 0 00-.482-2.467 9.843 9.843 0 00-1.022-2.375 18.3 18.3 0 00-2.586-3.156 10.426 10.426 0 00-2.945-1.864v-5.56a19.009 19.009 0 013.908 1.683 17.877 17.877 0 015.742 5.591 14.387 14.387 0 012.375 6.042 17.877 17.877 0 00.6-4.3 17.01 17.01 0 00-.451-3.879 20.725 20.725 0 00-1.773-4.39 26.281 26.281 0 00-2.284-3.185 18.4 18.4 0 00-3.577-2.976 13.343 13.343 0 00-3.368-1.473 8 8 0 00-1.172-.271V.149a18.9 18.9 0 0111.932 6.524 22.1 22.1 0 015.983 15.089 20.669 20.669 0 01-5.921 14.461 18.506 18.506 0 01-11.994 5.8m0-2.916a10.989 10.989 0 002.555-1.923 11.391 11.391 0 003.247-8.267 12.37 12.37 0 00-1.324-4.72 10.924 10.924 0 00-2.674-3.216 11.94 11.94 0 00-1.8-1.233v7.577a5.847 5.847 0 010 4.209zm0-38.959v5.381a22.917 22.917 0 00-2.436-.3h-10.22v7.969c.24-.062.54-.152.782-.211a5.856 5.856 0 01.811-.3 20.74 20.74 0 015.621-.753 20.066 20.066 0 015.32.722l.121.031v5.56a10.815 10.815 0 00-1.262-.452 16.671 16.671 0 00-4.87-.692 19.8 19.8 0 00-6.344 1.683 17.163 17.163 0 00-5.441 3.7h.06l-.06-22.487h15.6a19.513 19.513 0 012.315.15m0 19.6a10.56 10.56 0 00-2.436-.963 13.558 13.558 0 00-3.276-.328 15.2 15.2 0 00-3.216.63 11.76 11.76 0 00-3.187 1.894 10.567 10.567 0 00-3.7 5.712 10.258 10.258 0 002.2 9.708 10.684 10.684 0 005.712 3.641 11.856 11.856 0 003.247.359 12.733 12.733 0 003.758-.872c.3-.119.6-.269.9-.421v-7.573a5.233 5.233 0 01-1.233 1.8 5.546 5.546 0 01-9.469-3.908 5.543 5.543 0 015.562-5.562 5.477 5.477 0 013.908 1.623 5.947 5.947 0 011.233 1.835zm0 20.8v1.472a15.83 15.83 0 01-2.405.09 17.6 17.6 0 01-4.238-.421l-.029-.06h.058a11.771 11.771 0 005.683-.722c.3-.121.63-.24.932-.359m-40.312 1.7v-2.878l1.7-5.614a6.021 6.021 0 011.556-2.361 5.4 5.4 0 013.256-1.083h11.89l-.851 2.828h-5.189a1.315 1.315 0 00-.991.286 4.569 4.569 0 00-.519 1.084l-2.36 7.745zm0-5.946l.709-2.357a4.689 4.689 0 00.14-1.889 2.172 2.172 0 00-.849-1.226zm0-5.472v5.472l-.471 1.416H88.495l.851-2.83h1.556l.33-.9a1.056 1.056 0 00-.142-.659l-.425-.192h-.377c-.425 0-.661 0-.849.192a2.666 2.666 0 00-.567.8l-1.178 4.151a1.025 1.025 0 000 .755.577.577 0 00.517.377h10.616l-.9 2.832v.048H80.714a5.153 5.153 0 01-1.462-.332v-6.509q.141-.568.282-.991a7.136 7.136 0 011.792-2.83 4.224 4.224 0 013.208-1.322h13.164a3.771 3.771 0 011.792.376l.282.142m0 8.54l-.9 2.878h.9zm-20.522-6.23h.188l.943-2.922h-1.132zm0-2.922v2.922h-3.917c-.377 1.134-.613 2.031-.755 2.549-.188.424-.282.9-.471 1.274-.094.426-.236.9-.33 1.274-.142.709.046 1.039.8 1.039h2.974l-.9 2.972h-8.964a4.831 4.831 0 01-1.6-.142 1.432 1.432 0 01-.661-.092v-7.456l1.368-4.482 10.995-4.624-1.558 4.766zm0 5.237a37.359 37.359 0 00-.9 3.066c-.565 1.746-.282 2.878.9 3.443zm-13.824-3.996l1.462-4.811h-1.462zm0-4.811v4.811l-3.349 10.8h-8.445v-3.208l3.821-12.407zm0 7.925l-1.32 4.15a2.608 2.608 0 00.33 2.644 1.958 1.958 0 00.989.663zm-11.794 1.556l.707-2.357q.778-2.409-.707-3.114zm0-5.471v5.471l-.849 2.69a4.367 4.367 0 01-4.53 3.445h-4.719v-3.068a.868.868 0 00.33-.611l1.51-4.718c.094-.519 0-.711-.613-.711h-.567a1.374 1.374 0 00-.661.144v-2.972h8.3a3.926 3.926 0 011.794.33m0 8.4l-.991 3.208h.991zm-20.43-8.728h.943l-.943 3.206zm10.332 0h-5a4.349 4.349 0 00-4.482 3.445l-.849 2.736v5.425a3.457 3.457 0 001.652.33h8.68v-3.068a1.015 1.015 0 01-.659.236h-.657c-.519 0-.615-.331-.519-.847l1.419-4.728a.683.683 0 01.425-.567zm-31.563 0l-2.407 7.925c-.282.709-.092 1.039.426 1.039h.282c.471 0 .849-.331 1.132-1.039l2.359-7.925h9.295l-2.405 7.925c-.282.709-.094 1.039.471 1.039h.195c.519 0 .9-.331 1.178-1.039l2.407-7.925h8.3v3.206l-1.556 5.189a4.353 4.353 0 01-4.484 3.589H2.579c-2.217 0-3.018-1.182-2.359-3.589l2.642-8.4zm21.231 6.18l-.707 2.311q-.778 2.406.707 3.114z" fill="#54ab34"/></svg>