<svg xmlns="http://www.w3.org/2000/svg" xmlns:xlink="http://www.w3.org/1999/xlink"><defs><style>.a{fill:#00adef;fill-rule:evenodd;}</style><style>.a{fill:#29aae2;}</style><style>.a{fill:#29aae2;}</style><style>.a{fill:#29aae2;}</style><style>.a,.b,.c{fill:none;stroke-width:4px;}.a,.c{stroke:#00adef;}.a,.b{stroke-linejoin:round;}.b{stroke:#505050;}.c{stroke-miterlimit:10;}</style></defs><symbol id="icon_arrow-up" viewBox="0 0 8 5"><path stroke="#888888" stroke-width="1" fill="none" d="M0 5 L4 0 L8 5"/></symbol><symbol id="icon_checked" viewBox="0 0 17.414 11.414"><path class="a" d="M17.427,1.427l-10,10-.207-.207-.207.207-7-6L1.427,4.012,7.22,8.805,16.013.012Z" transform="translate(-0.013 -0.012)"/></symbol><symbol id="icon_doc-load_blue" viewBox="0 0 21 17.968"><g transform="translate(-2 -3.032)"><path class="a" d="M22.465,15.213a.536.536,0,0,0-.535.535v2.044a2.141,2.141,0,0,1-2.138,2.139H5.208A2.141,2.141,0,0,1,3.07,17.792V15.748a.535.535,0,0,0-1.07,0v2.044A3.212,3.212,0,0,0,5.208,21H19.793A3.211,3.211,0,0,0,23,17.792V15.748A.536.536,0,0,0,22.465,15.213Z"/><path class="a" d="M17.911,10.259a.535.535,0,0,0-.755-.043L13.035,13.9V3.535a.536.536,0,0,0-1.07,0V13.9L7.844,10.216a.535.535,0,1,0-.713.8l4.478,4a1.332,1.332,0,0,0,1.78,0l4.478-4a.534.534,0,0,0,.044-.754Z"/></g></symbol><symbol id="icon_doc-pdf_blue" viewBox="0 0 45 58"><path class="a" d="M44.45,12.187l-.771-.771-10.1-10.1L32.813.55A1.891,1.891,0,0,0,31.485,0H2.463C1.277,0,0,.916,0,2.926V56a2.291,2.291,0,0,0,1.838,1.91c.05.013.1.032.15.042A2.438,2.438,0,0,0,2.463,58H42.537a2.437,2.437,0,0,0,.475-.048c.052-.01.1-.029.15-.042A2.291,2.291,0,0,0,45,56V13.978a2.3,2.3,0,0,0-.55-1.791ZM41.435,12H33V3.565ZM2.463,56a.576.576,0,0,1-.2-.049A.458.458,0,0,1,2,55.537V41H43V55.537a.46.46,0,0,1-.265.414.576.576,0,0,1-.2.049ZM2,39V2.926C2,2.709,2.033,2,2.463,2H31.058A1.54,1.54,0,0,0,31,2.391V14H42.609a1.532,1.532,0,0,0,.39-.058V39Z"/><path class="a" d="M15.542,44.744a3.438,3.438,0,0,0-1.128-.615,4.067,4.067,0,0,0-1.271-.205h-2.9V54h1.641V50.363H13.1a4.314,4.314,0,0,0,1.449-.232,3.267,3.267,0,0,0,1.121-.656,2.913,2.913,0,0,0,.725-1.046,3.572,3.572,0,0,0,.26-1.388,2.751,2.751,0,0,0-.308-1.306,3.215,3.215,0,0,0-.808-.991Zm-.622,3.329a1.649,1.649,0,0,1-.4.649,1.5,1.5,0,0,1-.54.335,1.808,1.808,0,0,1-.6.1h-1.5V45.168h1.23a2.213,2.213,0,0,1,1.012.2,1.657,1.657,0,0,1,.6.492,1.637,1.637,0,0,1,.28.615,2.8,2.8,0,0,1,.068.567,3.077,3.077,0,0,1-.15,1.033ZM25.454,45.4a4.631,4.631,0,0,0-1.6-1.073,5.774,5.774,0,0,0-2.235-.4H18.584V54H22.4a5.439,5.439,0,0,0,.588-.048,4.036,4.036,0,0,0,.875-.219,4.584,4.584,0,0,0,.991-.513,3.478,3.478,0,0,0,.923-.937,5.285,5.285,0,0,0,.677-1.477,7.4,7.4,0,0,0,.267-2.126,5.06,5.06,0,0,0-.314-1.757,4.436,4.436,0,0,0-.951-1.523Zm-1.2,6.33A2.716,2.716,0,0,1,21.852,52.8H20.225V45.167h.957a5.034,5.034,0,0,1,1.914.308,3.066,3.066,0,0,1,1.169.807,2.661,2.661,0,0,1,.581,1.114A5.234,5.234,0,0,1,25,48.64a5.41,5.41,0,0,1-.738,3.09ZM29.1,54h1.668V49.461h4.211V48.34H30.766V45.168H35.4V43.924H29.1V54Zm2.83-31.039a19.356,19.356,0,0,0-3.358.358,31.954,31.954,0,0,1-5.088-7.562c1.337-5.629.668-6.426.373-6.8-.314-.4-.757-1.049-1.261-1.049a4.932,4.932,0,0,0-1.016.172,1.921,1.921,0,0,0-1.134,1.215c-.707,1.653.263,4.471,1.261,6.643a67.126,67.126,0,0,1-3.788,10.75c-3.79,1.736-5.8,3.441-5.985,5.068A2.4,2.4,0,0,0,13.047,34a1.605,1.605,0,0,0,.967.326c.875,0,1.759-.67,2.782-2.107a28.373,28.373,0,0,0,2.383-4.251,47.915,47.915,0,0,1,8.828-2.822c1.58,1.517,2.995,2.285,4.211,2.285a2.655,2.655,0,0,0,2.22-1.191,2.022,2.022,0,0,0,.39-2.16c-.385-.749-1.334-1.115-2.9-1.115ZM14.036,32.634c-.468-.359-.441-.6-.431-.692.062-.556.933-1.543,3.07-2.744C15.055,32.19,14.185,32.587,14.036,32.634Zm8.2-22.922c.043-.014,1.045,1.1.1,3.216A2.4,2.4,0,0,1,22.236,9.712ZM20.169,25.738a71.294,71.294,0,0,0,2.674-7.564,34.23,34.23,0,0,0,3.822,5.544,49.812,49.812,0,0,0-6.5,2.02Zm12.9-.479a1.507,1.507,0,0,1-1.21.441c-.533,0-.732-.317-1.547-.944a14.587,14.587,0,0,1,1.811-.108c.889,0,1.052.131,1.175.2A1.552,1.552,0,0,1,33.07,25.259Z"/></symbol><symbol id="icon_doc-view_blue" viewBox="0 0 24 14"><g transform="translate(-0.001 -4.999)"><path class="a" d="M23.611,10.837a14.934,14.934,0,0,0-5.046-4.251,14.383,14.383,0,0,0-13.13,0A14.944,14.944,0,0,0,.39,10.836a1.932,1.932,0,0,0,0,2.326,14.952,14.952,0,0,0,5.045,4.251,14.387,14.387,0,0,0,13.13,0,14.957,14.957,0,0,0,5.046-4.251,1.93,1.93,0,0,0,0-2.325ZM5.871,16.515a13.961,13.961,0,0,1-4.711-3.97.906.906,0,0,1,0-1.09A13.974,13.974,0,0,1,5.871,7.484a13.665,13.665,0,0,1,1.586-.691,7.128,7.128,0,0,0,0,10.414,13.43,13.43,0,0,1-1.586-.692ZM12,18a5.92,5.92,0,0,1-5.827-6A5.92,5.92,0,0,1,12,6a5.92,5.92,0,0,1,5.827,6A5.92,5.92,0,0,1,12,18Zm10.841-5.452a13.963,13.963,0,0,1-4.712,3.97,13.63,13.63,0,0,1-1.584.69,7.129,7.129,0,0,0,0-10.414,13.6,13.6,0,0,1,1.586.692,13.977,13.977,0,0,1,4.712,3.971A.906.906,0,0,1,22.841,12.545Z"/><path class="a" d="M12,9.433A2.567,2.567,0,1,0,14.494,12,2.534,2.534,0,0,0,12,9.433Zm0,4.129A1.563,1.563,0,1,1,13.517,12,1.542,1.542,0,0,1,12,13.562Z"/></g></symbol><symbol id="icon_warranty-logo" viewBox="0 0 211 254.508"><g transform="translate(-291 -47)"><path class="a" d="M396.56,49C386.493,63.288,319.355,92.579,293,92.579v103.5c0,48.656,97.748,101.893,103.5,103.429,5.752-1.536,103.5-58.488,103.5-97.982V92.579C471.249,92.579,406.621,63.288,396.56,49Z" transform="translate(0 0)"/><path class="b" d="M312,218.974c4.538-1.2,81.711-50.808,81.711-81.711V61" transform="translate(84.5 53.368)"/><path class="b" d="M378.711,55C370.768,66.178,317.8,87.684,297,87.684v81.711" transform="translate(17.789 26.684)"/><path class="c" d="M306,94.237l21.789,21.789L371.369,67" transform="translate(57.816 80.053)"/></g></symbol></svg>