<svg xmlns="http://www.w3.org/2000/svg" xmlns:xlink="http://www.w3.org/1999/xlink"><defs><style>.a{fill:#8f8f8f;}</style><style>.a{fill:#464749;}.b{fill:#0092df;}.c{fill:#0060af;}</style><style>.a{fill:#8f8f8f;}.b{fill:#bdbdbd;}.c{fill:#8e8e8e;}</style><style>.a{fill:#00adef;fill-rule:evenodd;}</style><style>.a{fill:#8f8f8f;}</style><style>.a{fill:#0092df;}.b{fill:#1a1818;}</style><style>.a{fill:#d8d8d8;}.b{fill:#8e8e8e;}.c{fill:#bdbdbd;}</style><style>.a{fill:#29aae2;}</style><style>.a{fill:#29aae2;}</style><style>.a{fill:#29aae2;}</style><style>.a{fill:#1a1818;}.b{fill:#e50019;}</style><style>.a{fill:#8f8f8f;}</style><style>.a{fill:#00a1ed;}</style><style>.a{fill:#bdbdbd;}</style><style>.a{fill:#268435;}.b{fill:#1a1818;}</style><style>.a{fill:#8f8f8f;}</style><style>.a{fill:#1a1818;}.b{fill:#e50019;}</style><style>.a{fill:#8f8f8f;}</style><style>.a,.b,.c{fill:none;stroke-width:4px;}.a,.c{stroke:#00adef;}.a,.b{stroke-linejoin:round;}.b{stroke:#505050;}.c{stroke-miterlimit:10;}</style><style>.a{fill:#54ab34;}</style><style>.a{fill:#8f8f8f;}</style></defs><symbol id="icon_arrow-up" viewBox="0 0 8 5"><path stroke="#888888" stroke-width="1" fill="none" d="M0 5 L4 0 L8 5"/></symbol><symbol id="icon_aurum-color" viewBox="0 0 158 48.132"><path d="M57.365,802.694l10.855,0-5.437-9.723Z" transform="translate(-45.028 -776.043)"/><path d="M113.549,816.556q0,2.824-1.049,3.828t-3.967,1l-12.669,0q-2.922,0-3.97-1.012t-1.047-3.813V800.949h3.862V818.3l14.933,0V800.946h3.907Zm-33.017,4.832-2.662-4.778-14.131,0-2.613,4.78H57.264l11.822-20.441h3.535l12.1,20.436Zm34.624-34.37-58.085.009a4.058,4.058,0,0,0-4.044,4.044V831.1a4.056,4.056,0,0,0,4.044,4.044l58.085-.009a3.964,3.964,0,0,0,3.961-3.961v-40.2a3.963,3.963,0,0,0-3.961-3.961" transform="translate(-53.027 -787.017)"/><path d="M92.38,794.9l-10.88,0V801.5H92.38a2.592,2.592,0,0,0,1.74-.427,2.275,2.275,0,0,0,.449-1.649v-2.449a2.218,2.218,0,0,0-.469-1.6,2.418,2.418,0,0,0-1.721-.472m-14.742,17.45V791.916l16.44,0a4.739,4.739,0,0,1,3.282.93,3.966,3.966,0,0,1,1,3.026v4.57a3.886,3.886,0,0,1-1,2.989,4.792,4.792,0,0,1-3.285.919H91.368l9.018,8.005H95.23l-8.148-8H81.5v8.005Z" transform="translate(-7.649 -777.989)"/><path d="M91.893,791.914v17.353l14.93,0V791.911h3.91v15.613q0,2.824-1.047,3.825c-.7.666-2.022,1-3.97,1l-12.669,0q-2.922,0-3.967-1.012c-.7-.674-1.049-1.945-1.049-3.813V791.914Z" transform="translate(11.514 -777.993)"/><path d="M102.429,795.706c0,.3.017.708.048,1.223.031.847.048,1.391.048,1.627l0,13.8-3.179,0,0-20.439h3.179L112.7,805.167l9.351-13.258h3.58l0,20.438h-3.578v-13.8c0-.5.017-.99.057-1.462s.1-.924.176-1.365a15.65,15.65,0,0,1-.682,1.706,5.638,5.638,0,0,1-.66,1.12l-7.863,10.571-1.015,0-8.148-10.479a7.919,7.919,0,0,1-.8-1.269,11.148,11.148,0,0,1-.685-1.672" transform="translate(32.372 -777.997)"/></symbol><symbol id="icon_aurum-grey" viewBox="0 0 158 48.132"><g transform="translate(-257.16 -499)"><path class="a" d="M57.365,802.694l10.855,0-5.437-9.723Z" transform="translate(212.132 -277.043)"/><path class="a" d="M113.549,816.556q0,2.824-1.049,3.828t-3.967,1l-12.669,0q-2.922,0-3.97-1.012t-1.047-3.813V800.949h3.862V818.3l14.933,0V800.946h3.907Zm-33.017,4.832-2.662-4.778-14.131,0-2.613,4.78H57.264l11.822-20.441h3.535l12.1,20.436Zm34.624-34.37-58.085.009a4.058,4.058,0,0,0-4.044,4.044V831.1a4.056,4.056,0,0,0,4.044,4.044l58.085-.009a3.964,3.964,0,0,0,3.961-3.961v-40.2a3.963,3.963,0,0,0-3.961-3.961" transform="translate(204.133 -288.017)"/><path class="a" d="M92.38,794.9l-10.88,0V801.5H92.38a2.592,2.592,0,0,0,1.74-.427,2.275,2.275,0,0,0,.449-1.649v-2.449a2.218,2.218,0,0,0-.469-1.6,2.418,2.418,0,0,0-1.721-.472m-14.742,17.45V791.916l16.44,0a4.739,4.739,0,0,1,3.282.93,3.966,3.966,0,0,1,1,3.026v4.57a3.886,3.886,0,0,1-1,2.989,4.792,4.792,0,0,1-3.285.919H91.368l9.018,8.005H95.23l-8.148-8H81.5v8.005Z" transform="translate(249.512 -278.989)"/><path class="a" d="M91.893,791.914v17.353l14.93,0V791.911h3.91v15.613q0,2.824-1.047,3.825c-.7.666-2.022,1-3.97,1l-12.669,0q-2.922,0-3.967-1.012c-.7-.674-1.049-1.945-1.049-3.813V791.914Z" transform="translate(268.674 -278.993)"/><path class="a" d="M102.429,795.706c0,.3.017.708.048,1.223.031.847.048,1.391.048,1.627l0,13.8-3.179,0,0-20.439h3.179L112.7,805.167l9.351-13.258h3.58l0,20.438h-3.578v-13.8c0-.5.017-.99.057-1.462s.1-.924.176-1.365a15.65,15.65,0,0,1-.682,1.706,5.638,5.638,0,0,1-.66,1.12l-7.863,10.571-1.015,0-8.148-10.479a7.919,7.919,0,0,1-.8-1.269,11.148,11.148,0,0,1-.685-1.672" transform="translate(289.532 -278.997)"/></g></symbol><symbol id="icon_axioma-color" viewBox="0 0 158 27.049"><path class="a" d="M216.7,769.831l1.991-6.541a5.348,5.348,0,0,0,.268-1.57,1.859,1.859,0,0,0-2.1-2.1,5.6,5.6,0,0,0-4.039,1.825l-4.828,4.46,1.083-3.379a3.919,3.919,0,0,0,.182-1.118q0-1.789-1.968-1.787a6.023,6.023,0,0,0-4.305,1.866l-5,4.419,1.885-6.285H181.9a9.042,9.042,0,0,0-5.872,1.786,7.084,7.084,0,0,0-2.5,4.656,6.9,6.9,0,0,0-.082,1.061,4.9,4.9,0,0,0,1.925,4.026,8.752,8.752,0,0,0,6.058,1.827,8.325,8.325,0,0,0,5.506-1.807,6.349,6.349,0,0,0,2.412-4.832,5.477,5.477,0,0,0-.282-1.993,3.149,3.149,0,0,0-.9-1.58h4.752l-3.05,10.213h3.4a2.894,2.894,0,0,0,2.12-.844l6.639-5.825-1.29,3.252a4.572,4.572,0,0,0-.249,1.414q0,2,2.269,2,1.518,0,3.653-2.081l5.6-5c-.489,1.848-.858,2.966-1.1,3.935a2.844,2.844,0,0,0-.065.609,2.6,2.6,0,0,0,.675,1.758,1.946,1.946,0,0,0,1.474.775h6.774a3.4,3.4,0,0,0,3.789-3.142Zm-34.371,0c-.157.014-.339.02-.55.02q-2.673,0-2.671-1.688a2.6,2.6,0,0,1,.117-.746l1.369-4.656h3.82Z" transform="translate(-87.327 -745.928)"/><path class="a" d="M180,769.728a3.957,3.957,0,0,1-1.8,2.553,4.078,4.078,0,0,1-2.136.589h-6.59a2.1,2.1,0,0,1-2.387-2.357,4.965,4.965,0,0,1,.233-1.433l3-9.353h6.056l-3.182,10Z" transform="translate(-93.41 -745.824)"/><path class="a" d="M185.577,759.619h-5.439l-2.9,2.531-1.435-2.531h-6.956l3.787,6.559-4.161,3.653h-4.885l3.137-10.212h-9.527a8.673,8.673,0,0,0-5.991,2.159,8.242,8.242,0,0,0-2.669,6.481,4.509,4.509,0,0,0,1.3,3.3,3.991,3.991,0,0,0,3.17,1.414,4.9,4.9,0,0,0,4.392-2.042q0,2.041,2.7,2.042h9.932l4.37-3.732,2.154,3.732h6.772l-4.337-7.679Zm-27.916,10.212c-.157.014-.341.02-.55.02q-2.673,0-2.671-1.688a2.6,2.6,0,0,1,.117-.746l1.369-4.656h3.82Z" transform="translate(-111.183 -745.928)"/><path class="a" d="M213.98,769.831l3.139-10.212h-9.527a8.673,8.673,0,0,0-5.991,2.159,8.235,8.235,0,0,0-2.669,6.481,4.476,4.476,0,0,0,1.245,3.3,3.986,3.986,0,0,0,3.17,1.414,4.989,4.989,0,0,0,4.444-2.042q0,2.041,2.7,2.042h6.324a3.818,3.818,0,0,0,4.088-3.142Zm-5.921,0c-.157.014-.341.02-.55.02-1.782,0-2.669-.562-2.669-1.688a2.6,2.6,0,0,1,.116-.746l1.369-4.656h3.82Z" transform="translate(-62.906 -745.928)"/><path class="b" d="M163.216,770.874l-10.733-17.627a1.312,1.312,0,0,0-1.12-.621h-9.87a1.316,1.316,0,0,0-1.124.621l-10.731,17.627a1.23,1.23,0,0,0,.012,1.3l4.374,6.9a1.321,1.321,0,0,0,2.232-.025l9.046-15.08a1.324,1.324,0,0,1,2.252,0l9.044,15.078a1.321,1.321,0,0,0,2.232.027l4.374-6.9a1.23,1.23,0,0,0,.014-1.3" transform="translate(-129.457 -752.626)"/><path class="c" d="M139.536,762.521a1.259,1.259,0,0,1,2.146,0l1.921,3.223,1.919,3.225a1.2,1.2,0,0,1-1.075,1.8h-7.675a1.2,1.2,0,0,1-1.073-1.8l1.919-3.225Z" transform="translate(-123.639 -743.723)"/><path class="a" d="M174.954,761.129l1.122-3.687h-4.047a2.72,2.72,0,0,0-2.6,1.921l-.542,1.766Z" transform="translate(-91.687 -748.013)"/></symbol><symbol id="icon_axioma-grey" viewBox="0 0 158 27.049"><g transform="translate(-257.16 -703)"><path class="a" d="M216.7,769.831l1.991-6.541a5.348,5.348,0,0,0,.268-1.57,1.859,1.859,0,0,0-2.1-2.1,5.6,5.6,0,0,0-4.039,1.825l-4.828,4.46,1.083-3.379a3.919,3.919,0,0,0,.182-1.118q0-1.789-1.968-1.787a6.023,6.023,0,0,0-4.305,1.866l-5,4.419,1.885-6.285H181.9a9.042,9.042,0,0,0-5.872,1.786,7.084,7.084,0,0,0-2.5,4.656,6.9,6.9,0,0,0-.082,1.061,4.9,4.9,0,0,0,1.925,4.026,8.752,8.752,0,0,0,6.058,1.827,8.325,8.325,0,0,0,5.506-1.807,6.349,6.349,0,0,0,2.412-4.832,5.477,5.477,0,0,0-.282-1.993,3.149,3.149,0,0,0-.9-1.58h4.752l-3.05,10.213h3.4a2.894,2.894,0,0,0,2.12-.844l6.639-5.825-1.29,3.252a4.572,4.572,0,0,0-.249,1.414q0,2,2.269,2,1.518,0,3.653-2.081l5.6-5c-.489,1.848-.858,2.966-1.1,3.935a2.844,2.844,0,0,0-.065.609,2.6,2.6,0,0,0,.675,1.758,1.946,1.946,0,0,0,1.474.775h6.774a3.4,3.4,0,0,0,3.789-3.142Zm-34.371,0c-.157.014-.339.02-.55.02q-2.673,0-2.671-1.688a2.6,2.6,0,0,1,.117-.746l1.369-4.656h3.82Z" transform="translate(169.834 -42.928)"/><path class="a" d="M180,769.728a3.957,3.957,0,0,1-1.8,2.553,4.078,4.078,0,0,1-2.136.589h-6.59a2.1,2.1,0,0,1-2.387-2.357,4.965,4.965,0,0,1,.233-1.433l3-9.353h6.056l-3.182,10Z" transform="translate(163.75 -42.824)"/><path class="a" d="M185.577,759.619h-5.439l-2.9,2.531-1.435-2.531h-6.956l3.787,6.559-4.161,3.653h-4.885l3.137-10.212h-9.527a8.673,8.673,0,0,0-5.991,2.159,8.242,8.242,0,0,0-2.669,6.481,4.509,4.509,0,0,0,1.3,3.3,3.991,3.991,0,0,0,3.17,1.414,4.9,4.9,0,0,0,4.392-2.042q0,2.041,2.7,2.042h9.932l4.37-3.732,2.154,3.732h6.772l-4.337-7.679Zm-27.916,10.212c-.157.014-.341.02-.55.02q-2.673,0-2.671-1.688a2.6,2.6,0,0,1,.117-.746l1.369-4.656h3.82Z" transform="translate(145.977 -42.928)"/><path class="a" d="M213.98,769.831l3.139-10.212h-9.527a8.673,8.673,0,0,0-5.991,2.159,8.235,8.235,0,0,0-2.669,6.481,4.476,4.476,0,0,0,1.245,3.3,3.986,3.986,0,0,0,3.17,1.414,4.989,4.989,0,0,0,4.444-2.042q0,2.041,2.7,2.042h6.324a3.818,3.818,0,0,0,4.088-3.142Zm-5.921,0c-.157.014-.341.02-.55.02-1.782,0-2.669-.562-2.669-1.688a2.6,2.6,0,0,1,.116-.746l1.369-4.656h3.82Z" transform="translate(194.255 -42.928)"/><path class="b" d="M163.216,770.874l-10.733-17.627a1.312,1.312,0,0,0-1.12-.621h-9.87a1.316,1.316,0,0,0-1.124.621l-10.731,17.627a1.23,1.23,0,0,0,.012,1.3l4.374,6.9a1.321,1.321,0,0,0,2.232-.025l9.046-15.08a1.324,1.324,0,0,1,2.252,0l9.044,15.078a1.321,1.321,0,0,0,2.232.027l4.374-6.9a1.23,1.23,0,0,0,.014-1.3" transform="translate(127.703 -49.626)"/><path class="c" d="M139.536,762.521a1.259,1.259,0,0,1,2.146,0l1.921,3.223,1.919,3.225a1.2,1.2,0,0,1-1.075,1.8h-7.675a1.2,1.2,0,0,1-1.073-1.8l1.919-3.225Z" transform="translate(133.521 -40.723)"/><path class="a" d="M174.954,761.129l1.122-3.687h-4.047a2.72,2.72,0,0,0-2.6,1.921l-.542,1.766Z" transform="translate(165.473 -45.013)"/></g></symbol><symbol id="icon_checked" viewBox="0 0 17.414 11.414"><path class="a" d="M17.427,1.427l-10,10-.207-.207-.207.207-7-6L1.427,4.012,7.22,8.805,16.013.012Z" transform="translate(-0.013 -0.012)"/></symbol><symbol id="icon_daichi-color" viewBox="0 0 158 28.529"><g transform="translate(0 0)"><path d="M157.13,720.436a14.725,14.725,0,0,1,5.559,1.046,14.523,14.523,0,0,1,4.51,2.956,13.846,13.846,0,0,1,3.029,4.4,13.924,13.924,0,0,1,0,10.8,13.9,13.9,0,0,1-3.029,4.391,13.652,13.652,0,0,1-4.51,2.917,13.991,13.991,0,0,1-5.559,1.09H146.564v-27.6Zm3.5,21.728a7.7,7.7,0,0,0,2.679-1.829,9.019,9.019,0,0,0,2.335-6.1,8.876,8.876,0,0,0-.623-3.383,8.519,8.519,0,0,0-1.711-2.718,8.251,8.251,0,0,0-2.679-1.865,9.208,9.208,0,0,0-3.5-.662H152.2v17.259h4.931a8.525,8.525,0,0,0,3.5-.7" transform="translate(-124.384 -719.97)"/><rect width="5.64" height="27.598" transform="translate(79.991 0.467)"/><path d="M195.8,737.485a7.3,7.3,0,0,1-7.6,5.85c-5.877,0-7.762-4.559-7.762-8.825s1.885-8.823,7.762-8.823a7.307,7.307,0,0,1,7.6,5.847h5.764c-1.125-6.779-6.126-11.289-13.157-11.289-8.009,0-13.82,5.865-13.82,14.265s5.811,14.265,13.82,14.265c7.031,0,12.033-4.513,13.157-11.289Z" transform="translate(-83.902 -720.245)"/><rect width="5.64" height="27.598" transform="translate(152.36 0.467)"/><path d="M205.6,720.436V731.65H193.2V720.436h-5.635v27.6H193.2V736.583h12.4v11.451h5.635v-27.6Z" transform="translate(-65.149 -719.969)"/><path d="M145.923,720.245a8.432,8.432,0,1,0,8.432,8.432,8.431,8.431,0,0,0-8.432-8.432m0,11.9a3.464,3.464,0,1,1,3.464-3.464,3.464,3.464,0,0,1-3.464,3.464" transform="translate(-137.491 -720.245)"/><rect width="13.45" height="4.86" transform="translate(55.293 17.55)"/><path d="M166.653,720.435l-9.5,27.6h5.982l9.128-27.6Z" transform="translate(-109.082 -719.971)"/><path d="M162.287,720.435l9.05,27.6h5.982l-9.419-27.6Z" transform="translate(-101.669 -719.971)"/></g></symbol><symbol id="icon_daichi-grey" viewBox="0 0 158 28.529"><g transform="translate(-255.16 -611)"><path class="a" d="M157.13,720.436a14.725,14.725,0,0,1,5.559,1.046,14.523,14.523,0,0,1,4.51,2.956,13.846,13.846,0,0,1,3.029,4.4,13.924,13.924,0,0,1,0,10.8,13.9,13.9,0,0,1-3.029,4.391,13.652,13.652,0,0,1-4.51,2.917,13.991,13.991,0,0,1-5.559,1.09H146.564v-27.6Zm3.5,21.728a7.7,7.7,0,0,0,2.679-1.829,9.019,9.019,0,0,0,2.335-6.1,8.876,8.876,0,0,0-.623-3.383,8.519,8.519,0,0,0-1.711-2.718,8.251,8.251,0,0,0-2.679-1.865,9.208,9.208,0,0,0-3.5-.662H152.2v17.259h4.931a8.525,8.525,0,0,0,3.5-.7" transform="translate(130.776 -108.97)"/><rect class="a" width="5.64" height="27.598" transform="translate(335.151 611.467)"/><path class="a" d="M195.8,737.485a7.3,7.3,0,0,1-7.6,5.85c-5.877,0-7.762-4.559-7.762-8.825s1.885-8.823,7.762-8.823a7.307,7.307,0,0,1,7.6,5.847h5.764c-1.125-6.779-6.126-11.289-13.157-11.289-8.009,0-13.82,5.865-13.82,14.265s5.811,14.265,13.82,14.265c7.031,0,12.033-4.513,13.157-11.289Z" transform="translate(171.258 -109.245)"/><rect class="a" width="5.64" height="27.598" transform="translate(407.52 611.467)"/><path class="a" d="M205.6,720.436V731.65H193.2V720.436h-5.635v27.6H193.2V736.583h12.4v11.451h5.635v-27.6Z" transform="translate(190.011 -108.969)"/><path class="a" d="M145.923,720.245a8.432,8.432,0,1,0,8.432,8.432,8.431,8.431,0,0,0-8.432-8.432m0,11.9a3.464,3.464,0,1,1,3.464-3.464,3.464,3.464,0,0,1-3.464,3.464" transform="translate(117.669 -109.245)"/><rect class="a" width="13.45" height="4.86" transform="translate(310.453 628.55)"/><path class="a" d="M166.653,720.435l-9.5,27.6h5.982l9.128-27.6Z" transform="translate(146.078 -108.971)"/><path class="a" d="M162.287,720.435l9.05,27.6h5.982l-9.419-27.6Z" transform="translate(153.491 -108.971)"/></g></symbol><symbol id="icon_daikin-color" viewBox="0 0 160 33.526"><path class="a" d="M39.685,717.941H75.834L39.685,751.466Z" transform="translate(-39.685 -717.941)"/><path class="b" d="M57.755,717.941H39.685V734.7Z" transform="translate(-39.685 -717.941)"/><path class="a" d="M106.622,721.639h8.506l-4.694,19.139h-8.508Z" transform="translate(19.163 -714.413)"/><path class="a" d="M88.824,740.777h7.727l1.4-5.786,4.272,5.786h9.449l-6.809-9.719,10.589-9.42H106.51L99.74,727.5l1.445-5.862H93.124Z" transform="translate(6.775 -714.413)"/><path class="a" d="M82.062,740.777l4.7-19.139h8.506l-4.7,19.139Z" transform="translate(0.381 -714.413)"/><path class="a" d="M108.381,740.777h5.889l2.735-10.919,3.445,10.919h9.519l4.764-19.139h-6.282l-2.677,10.549-3.689-10.549h-8.965Z" transform="translate(25.266 -714.413)"/><path class="a" d="M68.733,736.32a5.6,5.6,0,0,0,4.7-4.621s.547-3.31-.7-4.523a3.037,3.037,0,0,0-2.068-.739H67.4l-2.348,9.883Zm-12.916,4.457,4.763-19.139H73.361s8.8.705,7.881,9.654c-.025.26-.449,7.97-9.832,9.484Z" transform="translate(-24.433 -714.414)"/><path class="a" d="M82.3,732.751l-.872-4.9-2.677,4.9Zm-5.916,4.385-2.3,3.642H68.481L79.1,721.639h9.712l3.377,19.139H83.716l-.646-3.642Z" transform="translate(-12.459 -714.412)"/></symbol><symbol id="icon_daikin-grey" viewBox="0 0 160 33.38"><g transform="translate(-255 -319)"><path class="a" d="M39.685,717.941H75.834l-36.149,33.38Z" transform="translate(215.315 -398.941)"/><path class="b" d="M57.755,717.941H39.685v16.69Z" transform="translate(215.315 -398.941)"/><path class="c" d="M106.622,721.639h8.506l-4.694,19.056h-8.508Z" transform="translate(274.163 -395.444)"/><path class="c" d="M88.824,740.694h7.727l1.4-5.761,4.272,5.761h9.449l-6.809-9.677,10.589-9.379H106.51l-6.77,5.836,1.445-5.836H93.124Z" transform="translate(261.775 -395.444)"/><path class="c" d="M82.062,740.694l4.7-19.056h8.506l-4.7,19.056Z" transform="translate(255.381 -395.444)"/><path class="c" d="M108.381,740.694h5.889l2.735-10.871,3.445,10.871h9.519l4.764-19.056h-6.282l-2.677,10.5-3.689-10.5h-8.965Z" transform="translate(280.266 -395.444)"/><path class="c" d="M68.733,736.256a5.59,5.59,0,0,0,4.7-4.6s.547-3.3-.7-4.5a3.044,3.044,0,0,0-2.068-.735H67.4l-2.348,9.84Zm-12.916,4.438,4.763-19.056H73.361s8.8.7,7.881,9.613c-.025.259-.449,7.936-9.832,9.443Z" transform="translate(230.567 -395.445)"/><path class="c" d="M82.3,732.7l-.872-4.879L78.755,732.7Zm-5.916,4.366-2.3,3.626H68.481L79.1,721.639h9.712l3.377,19.056H83.716l-.646-3.626Z" transform="translate(242.541 -395.444)"/></g></symbol><symbol id="icon_doc-load_blue" viewBox="0 0 21 17.968"><g transform="translate(-2 -3.032)"><path class="a" d="M22.465,15.213a.536.536,0,0,0-.535.535v2.044a2.141,2.141,0,0,1-2.138,2.139H5.208A2.141,2.141,0,0,1,3.07,17.792V15.748a.535.535,0,0,0-1.07,0v2.044A3.212,3.212,0,0,0,5.208,21H19.793A3.211,3.211,0,0,0,23,17.792V15.748A.536.536,0,0,0,22.465,15.213Z"/><path class="a" d="M17.911,10.259a.535.535,0,0,0-.755-.043L13.035,13.9V3.535a.536.536,0,0,0-1.07,0V13.9L7.844,10.216a.535.535,0,1,0-.713.8l4.478,4a1.332,1.332,0,0,0,1.78,0l4.478-4a.534.534,0,0,0,.044-.754Z"/></g></symbol><symbol id="icon_doc-pdf_blue" viewBox="0 0 45 58"><path class="a" d="M44.45,12.187l-.771-.771-10.1-10.1L32.813.55A1.891,1.891,0,0,0,31.485,0H2.463C1.277,0,0,.916,0,2.926V56a2.291,2.291,0,0,0,1.838,1.91c.05.013.1.032.15.042A2.438,2.438,0,0,0,2.463,58H42.537a2.437,2.437,0,0,0,.475-.048c.052-.01.1-.029.15-.042A2.291,2.291,0,0,0,45,56V13.978a2.3,2.3,0,0,0-.55-1.791ZM41.435,12H33V3.565ZM2.463,56a.576.576,0,0,1-.2-.049A.458.458,0,0,1,2,55.537V41H43V55.537a.46.46,0,0,1-.265.414.576.576,0,0,1-.2.049ZM2,39V2.926C2,2.709,2.033,2,2.463,2H31.058A1.54,1.54,0,0,0,31,2.391V14H42.609a1.532,1.532,0,0,0,.39-.058V39Z"/><path class="a" d="M15.542,44.744a3.438,3.438,0,0,0-1.128-.615,4.067,4.067,0,0,0-1.271-.205h-2.9V54h1.641V50.363H13.1a4.314,4.314,0,0,0,1.449-.232,3.267,3.267,0,0,0,1.121-.656,2.913,2.913,0,0,0,.725-1.046,3.572,3.572,0,0,0,.26-1.388,2.751,2.751,0,0,0-.308-1.306,3.215,3.215,0,0,0-.808-.991Zm-.622,3.329a1.649,1.649,0,0,1-.4.649,1.5,1.5,0,0,1-.54.335,1.808,1.808,0,0,1-.6.1h-1.5V45.168h1.23a2.213,2.213,0,0,1,1.012.2,1.657,1.657,0,0,1,.6.492,1.637,1.637,0,0,1,.28.615,2.8,2.8,0,0,1,.068.567,3.077,3.077,0,0,1-.15,1.033ZM25.454,45.4a4.631,4.631,0,0,0-1.6-1.073,5.774,5.774,0,0,0-2.235-.4H18.584V54H22.4a5.439,5.439,0,0,0,.588-.048,4.036,4.036,0,0,0,.875-.219,4.584,4.584,0,0,0,.991-.513,3.478,3.478,0,0,0,.923-.937,5.285,5.285,0,0,0,.677-1.477,7.4,7.4,0,0,0,.267-2.126,5.06,5.06,0,0,0-.314-1.757,4.436,4.436,0,0,0-.951-1.523Zm-1.2,6.33A2.716,2.716,0,0,1,21.852,52.8H20.225V45.167h.957a5.034,5.034,0,0,1,1.914.308,3.066,3.066,0,0,1,1.169.807,2.661,2.661,0,0,1,.581,1.114A5.234,5.234,0,0,1,25,48.64a5.41,5.41,0,0,1-.738,3.09ZM29.1,54h1.668V49.461h4.211V48.34H30.766V45.168H35.4V43.924H29.1V54Zm2.83-31.039a19.356,19.356,0,0,0-3.358.358,31.954,31.954,0,0,1-5.088-7.562c1.337-5.629.668-6.426.373-6.8-.314-.4-.757-1.049-1.261-1.049a4.932,4.932,0,0,0-1.016.172,1.921,1.921,0,0,0-1.134,1.215c-.707,1.653.263,4.471,1.261,6.643a67.126,67.126,0,0,1-3.788,10.75c-3.79,1.736-5.8,3.441-5.985,5.068A2.4,2.4,0,0,0,13.047,34a1.605,1.605,0,0,0,.967.326c.875,0,1.759-.67,2.782-2.107a28.373,28.373,0,0,0,2.383-4.251,47.915,47.915,0,0,1,8.828-2.822c1.58,1.517,2.995,2.285,4.211,2.285a2.655,2.655,0,0,0,2.22-1.191,2.022,2.022,0,0,0,.39-2.16c-.385-.749-1.334-1.115-2.9-1.115ZM14.036,32.634c-.468-.359-.441-.6-.431-.692.062-.556.933-1.543,3.07-2.744C15.055,32.19,14.185,32.587,14.036,32.634Zm8.2-22.922c.043-.014,1.045,1.1.1,3.216A2.4,2.4,0,0,1,22.236,9.712ZM20.169,25.738a71.294,71.294,0,0,0,2.674-7.564,34.23,34.23,0,0,0,3.822,5.544,49.812,49.812,0,0,0-6.5,2.02Zm12.9-.479a1.507,1.507,0,0,1-1.21.441c-.533,0-.732-.317-1.547-.944a14.587,14.587,0,0,1,1.811-.108c.889,0,1.052.131,1.175.2A1.552,1.552,0,0,1,33.07,25.259Z"/></symbol><symbol id="icon_doc-view_blue" viewBox="0 0 24 14"><g transform="translate(-0.001 -4.999)"><path class="a" d="M23.611,10.837a14.934,14.934,0,0,0-5.046-4.251,14.383,14.383,0,0,0-13.13,0A14.944,14.944,0,0,0,.39,10.836a1.932,1.932,0,0,0,0,2.326,14.952,14.952,0,0,0,5.045,4.251,14.387,14.387,0,0,0,13.13,0,14.957,14.957,0,0,0,5.046-4.251,1.93,1.93,0,0,0,0-2.325ZM5.871,16.515a13.961,13.961,0,0,1-4.711-3.97.906.906,0,0,1,0-1.09A13.974,13.974,0,0,1,5.871,7.484a13.665,13.665,0,0,1,1.586-.691,7.128,7.128,0,0,0,0,10.414,13.43,13.43,0,0,1-1.586-.692ZM12,18a5.92,5.92,0,0,1-5.827-6A5.92,5.92,0,0,1,12,6a5.92,5.92,0,0,1,5.827,6A5.92,5.92,0,0,1,12,18Zm10.841-5.452a13.963,13.963,0,0,1-4.712,3.97,13.63,13.63,0,0,1-1.584.69,7.129,7.129,0,0,0,0-10.414,13.6,13.6,0,0,1,1.586.692,13.977,13.977,0,0,1,4.712,3.971A.906.906,0,0,1,22.841,12.545Z"/><path class="a" d="M12,9.433A2.567,2.567,0,1,0,14.494,12,2.534,2.534,0,0,0,12,9.433Zm0,4.129A1.563,1.563,0,1,1,13.517,12,1.542,1.542,0,0,1,12,13.562Z"/></g></symbol><symbol id="icon_kentatsu-color" viewBox="0 0 158 23.049"><path class="a" d="M235.768,722.241h4.548v6.969h.049l5.136-6.969h5.478l-6.311,7.947,6.8,9.121h-5.8l-5.306-7.752h-.049v7.752h-4.548Z" transform="translate(-203.518 -719.237)"/><path class="a" d="M245.571,722.241H257.6v3.226h-7.484v3.524h7.069v3.228h-7.069v3.863h7.752v3.228h-12.3Z" transform="translate(-195.544 -719.237)"/><path class="a" d="M254.054,722.241h5.8l5.772,11.592h.047l-.073-11.592h4.158v17.068h-5.649l-5.968-11.664h-.049l.147,11.664h-4.182Z" transform="translate(-188.644 -719.237)"/><path class="a" d="M268.145,725.616h-4.207v-3.375H276.9v3.375h-4.207V739.31h-4.548Z" transform="translate(-180.604 -719.237)"/><path class="a" d="M279.774,725.764h-.047l-2.2,6.675H281.8Zm-2.787-3.522h5.574l6.579,17.068h-4.987l-1.273-3.643h-6.409l-1.344,3.643h-4.621Z" transform="translate(-175.261 -719.237)"/><path class="a" d="M284.492,725.616h-4.207v-3.375h12.962v3.375H289.04V739.31h-4.548Z" transform="translate(-167.307 -719.237)"/><path class="a" d="M288.9,735.237a9.993,9.993,0,0,0,4.695,1.124c1.444,0,2.814-.294,2.814-1.663,0-3.179-8.072-1.175-8.072-7.384,0-4.109,4.011-5.235,7.435-5.235a14.472,14.472,0,0,1,4.4.636l-.294,3.522a9.169,9.169,0,0,0-3.79-.783c-1.151,0-3.056.1-3.056,1.59,0,2.764,8.07.9,8.07,7.067,0,4.427-3.718,5.625-7.509,5.625a17.949,17.949,0,0,1-5.087-.733Z" transform="translate(-160.758 -719.37)"/><path class="a" d="M311.825,732.83c0,4.671-3.032,6.775-7.482,6.775s-7.484-2.1-7.484-6.775V722.241h4.548v9.831c0,2.25.611,4.158,2.936,4.158s2.934-1.908,2.934-4.158v-9.831h4.548Z" transform="translate(-153.825 -719.238)"/><rect class="b" width="6.196" height="6.2" transform="translate(8.441)"/><rect class="b" width="6.196" height="6.202" transform="translate(8.441 16.847)"/><rect class="b" width="6.198" height="6.195" transform="matrix(0.864, -0.503, 0.503, 0.864, 0, 14.627)"/><rect class="b" width="6.199" height="6.198" transform="translate(0.013 8.376) rotate(-59.585)"/><rect class="b" width="6.196" height="6.199" transform="translate(14.625 16.864) rotate(-59.812)"/><rect class="b" width="6.199" height="6.199" transform="translate(14.601 6.168) rotate(-30.406)"/></symbol><symbol id="icon_kentatsu-grey" viewBox="0 0 158 23.049"><g transform="translate(-820.16 -324)"><path class="a" d="M235.768,722.241h4.548v6.969h.049l5.136-6.969h5.478l-6.311,7.947,6.8,9.121h-5.8l-5.306-7.752h-.049v7.752h-4.548Z" transform="translate(616.642 -395.237)"/><path class="a" d="M245.571,722.241H257.6v3.226h-7.484v3.524h7.069v3.228h-7.069v3.863h7.752v3.228h-12.3Z" transform="translate(624.616 -395.237)"/><path class="a" d="M254.054,722.241h5.8l5.772,11.592h.047l-.073-11.592h4.158v17.068h-5.649l-5.968-11.664h-.049l.147,11.664h-4.182Z" transform="translate(631.516 -395.237)"/><path class="a" d="M268.145,725.616h-4.207v-3.375H276.9v3.375h-4.207V739.31h-4.548Z" transform="translate(639.556 -395.237)"/><path class="a" d="M279.774,725.764h-.047l-2.2,6.675H281.8Zm-2.787-3.522h5.574l6.579,17.068h-4.987l-1.273-3.643h-6.409l-1.344,3.643h-4.621Z" transform="translate(644.9 -395.237)"/><path class="a" d="M284.492,725.616h-4.207v-3.375h12.962v3.375H289.04V739.31h-4.548Z" transform="translate(652.853 -395.237)"/><path class="a" d="M288.9,735.237a9.993,9.993,0,0,0,4.695,1.124c1.444,0,2.814-.294,2.814-1.663,0-3.179-8.072-1.175-8.072-7.384,0-4.109,4.011-5.235,7.435-5.235a14.472,14.472,0,0,1,4.4.636l-.294,3.522a9.169,9.169,0,0,0-3.79-.783c-1.151,0-3.056.1-3.056,1.59,0,2.764,8.07.9,8.07,7.067,0,4.427-3.718,5.625-7.509,5.625a17.949,17.949,0,0,1-5.087-.733Z" transform="translate(659.402 -395.37)"/><path class="a" d="M311.825,732.83c0,4.671-3.032,6.775-7.482,6.775s-7.484-2.1-7.484-6.775V722.241h4.548v9.831c0,2.25.611,4.158,2.936,4.158s2.934-1.908,2.934-4.158v-9.831h4.548Z" transform="translate(666.335 -395.238)"/><rect class="a" width="6.196" height="6.2" transform="translate(828.602 324)"/><rect class="a" width="6.196" height="6.202" transform="translate(828.602 340.847)"/><rect class="a" width="6.198" height="6.195" transform="matrix(0.864, -0.503, 0.503, 0.864, 820.16, 338.627)"/><rect class="a" width="6.199" height="6.198" transform="translate(820.173 332.376) rotate(-59.585)"/><rect class="a" width="6.196" height="6.199" transform="translate(834.785 340.864) rotate(-59.812)"/><rect class="a" width="6.199" height="6.199" transform="translate(834.761 330.168) rotate(-30.406)"/></g></symbol><symbol id="icon_midea-color" viewBox="0 0 158 63.359"><path class="a" d="M152.571,792.1a7.453,7.453,0,0,1-1.992,1.146,8.05,8.05,0,0,1-3.03.533,5.607,5.607,0,0,1-4.376-1.822,8.016,8.016,0,0,1-1.588-5.39c0-2.329.507-4.07,1.5-5.163a5.942,5.942,0,0,1,4.6-1.691,8.783,8.783,0,0,1,3.012.5,5.363,5.363,0,0,1,1.864,1.027,1.1,1.1,0,0,1,.314.772l0,9.31a1.134,1.134,0,0,1-.3.775m5.305-25.174h-4.541c-.456,0-.463.528-.463.528v9.32l-.649-.342a7.789,7.789,0,0,0-2.193-.772,14.719,14.719,0,0,0-2.708-.221,12.039,12.039,0,0,0-8.618,3.094c-2.111,2.021-3.218,5-3.2,8.618a12.277,12.277,0,0,0,2.69,8.052c1.763,2.1,4.394,3.166,7.815,3.166,4.911,0,6.855-2.963,6.855-2.963l.013,2.873h5.485V792.9c0-5.995,0-25.429,0-25.429s.023-.546-.481-.546m-27.241,0H126.2a.524.524,0,0,0-.541.641c0,.7,0,4.072,0,4.772h5.48v-4.844a.492.492,0,0,0-.51-.569M203.277,793a.751.751,0,0,1-.407.759,10.635,10.635,0,0,1-5.272.9,3.821,3.821,0,0,1-3.619-2.736c-.062-.288-.6-3.614,2.61-4.659a11.684,11.684,0,0,1,6.167.157c.414.113.52.353.52.844Zm-4.067-17.632c-6.438,0-8.705,3.9-9.421,5.776l-.25.677,2.142.731s1.385-3.959,6.842-3.732c5.516.224,4.87,4.739,4.826,5.46a16.178,16.178,0,0,0-10.232.463c-3.557,1.627-4.106,4.9-3.995,7.3.165,3.549,3.3,6.046,7.377,6.273,3.66.206,5.308-.595,6.821-2.111l-.041,2.067h4.831v-15.6c.1-2.69-1.8-7.3-8.9-7.3m-30.636,9.261c-.255-.008-.278-.257-.273-.381a5.923,5.923,0,0,1,1.624-3.264,5.987,5.987,0,0,1,4.3-1.681,5.609,5.609,0,0,1,3.807,1.341,6.076,6.076,0,0,1,1.853,3.339c.051.162.142.628-.239.628Zm13.637-5.792a9.974,9.974,0,0,0-7.925-3.4,11.64,11.64,0,0,0-8.353,3.2,11.088,11.088,0,0,0-3.3,8.353,10.833,10.833,0,0,0,3.233,8.214c2.162,2.034,5.233,3.063,9.117,3.063,7.524,0,9.158-5.184,9.776-6.9l-1.946-.628c-1.732,3.164-5.622,3.354-7.892,3.207a8.126,8.126,0,0,1-4.26-1.5,5.993,5.993,0,0,1-2.347-3.984l-.106-.7h16.929c-.062-3.748-1.032-6.757-2.927-8.927M54.406,779.89c0-16.309,13.756-29.576,30.662-29.576A31.055,31.055,0,0,1,110.9,764.063c-4.152-11.611-15.647-19.594-28.585-19.594-16.667,0-30.224,13-30.224,28.981a27.958,27.958,0,0,0,3.055,12.577,28.539,28.539,0,0,1-.741-6.136m61.64-13h-5.519a.483.483,0,0,0-.525.561,27.692,27.692,0,0,1,.255,4.322c0,5.4-.651,13.164-6.579,20.533l-.42.52s-3.555-24.865-3.629-25.357c0,0-.021-.579-.5-.579H93.57c-.525,0-.492.556-.492.556-.129,2.875-1.732,26.816-19.2,30.682a19.906,19.906,0,0,0,12.157-3.184,19.684,19.684,0,0,0,9.174-12.528s2.134,13.349,2.414,16.417l.018.2-.172.09a34.1,34.1,0,0,1-47.352-16.61,32.2,32.2,0,0,0,31.47,25.315c17.812,0,28.4-14.909,30.229-25.5,0,0,2.4,15.442,2.461,15.946h7.287c-.108-.664-4.934-30.34-5.014-30.824,0,0-.026-.559-.5-.559m9.619,8.651v22.731l5.372-.008,0-22.724Z" transform="translate(-50.115 -744.469)"/></symbol><symbol id="icon_midea-grey" viewBox="0 0 158 63.359"><g transform="translate(-255.16 -394)"><path class="a" d="M152.571,792.1a7.453,7.453,0,0,1-1.992,1.146,8.05,8.05,0,0,1-3.03.533,5.607,5.607,0,0,1-4.376-1.822,8.016,8.016,0,0,1-1.588-5.39c0-2.329.507-4.07,1.5-5.163a5.942,5.942,0,0,1,4.6-1.691,8.783,8.783,0,0,1,3.012.5,5.363,5.363,0,0,1,1.864,1.027,1.1,1.1,0,0,1,.314.772l0,9.31a1.134,1.134,0,0,1-.3.775m5.305-25.174h-4.541c-.456,0-.463.528-.463.528v9.32l-.649-.342a7.789,7.789,0,0,0-2.193-.772,14.719,14.719,0,0,0-2.708-.221,12.039,12.039,0,0,0-8.618,3.094c-2.111,2.021-3.218,5-3.2,8.618a12.277,12.277,0,0,0,2.69,8.052c1.763,2.1,4.394,3.166,7.815,3.166,4.911,0,6.855-2.963,6.855-2.963l.013,2.873h5.485V792.9c0-5.995,0-25.429,0-25.429s.023-.546-.481-.546m-27.241,0H126.2a.524.524,0,0,0-.541.641c0,.7,0,4.072,0,4.772h5.48v-4.844a.492.492,0,0,0-.51-.569M203.277,793a.751.751,0,0,1-.407.759,10.635,10.635,0,0,1-5.272.9,3.821,3.821,0,0,1-3.619-2.736c-.062-.288-.6-3.614,2.61-4.659a11.684,11.684,0,0,1,6.167.157c.414.113.52.353.52.844Zm-4.067-17.632c-6.438,0-8.705,3.9-9.421,5.776l-.25.677,2.142.731s1.385-3.959,6.842-3.732c5.516.224,4.87,4.739,4.826,5.46a16.178,16.178,0,0,0-10.232.463c-3.557,1.627-4.106,4.9-3.995,7.3.165,3.549,3.3,6.046,7.377,6.273,3.66.206,5.308-.595,6.821-2.111l-.041,2.067h4.831v-15.6c.1-2.69-1.8-7.3-8.9-7.3m-30.636,9.261c-.255-.008-.278-.257-.273-.381a5.923,5.923,0,0,1,1.624-3.264,5.987,5.987,0,0,1,4.3-1.681,5.609,5.609,0,0,1,3.807,1.341,6.076,6.076,0,0,1,1.853,3.339c.051.162.142.628-.239.628Zm13.637-5.792a9.974,9.974,0,0,0-7.925-3.4,11.64,11.64,0,0,0-8.353,3.2,11.088,11.088,0,0,0-3.3,8.353,10.833,10.833,0,0,0,3.233,8.214c2.162,2.034,5.233,3.063,9.117,3.063,7.524,0,9.158-5.184,9.776-6.9l-1.946-.628c-1.732,3.164-5.622,3.354-7.892,3.207a8.126,8.126,0,0,1-4.26-1.5,5.993,5.993,0,0,1-2.347-3.984l-.106-.7h16.929c-.062-3.748-1.032-6.757-2.927-8.927M54.406,779.89c0-16.309,13.756-29.576,30.662-29.576A31.055,31.055,0,0,1,110.9,764.063c-4.152-11.611-15.647-19.594-28.585-19.594-16.667,0-30.224,13-30.224,28.981a27.958,27.958,0,0,0,3.055,12.577,28.539,28.539,0,0,1-.741-6.136m61.64-13h-5.519a.483.483,0,0,0-.525.561,27.692,27.692,0,0,1,.255,4.322c0,5.4-.651,13.164-6.579,20.533l-.42.52s-3.555-24.865-3.629-25.357c0,0-.021-.579-.5-.579H93.57c-.525,0-.492.556-.492.556-.129,2.875-1.732,26.816-19.2,30.682a19.906,19.906,0,0,0,12.157-3.184,19.684,19.684,0,0,0,9.174-12.528s2.134,13.349,2.414,16.417l.018.2-.172.09a34.1,34.1,0,0,1-47.352-16.61,32.2,32.2,0,0,0,31.47,25.315c17.812,0,28.4-14.909,30.229-25.5,0,0,2.4,15.442,2.461,15.946h7.287c-.108-.664-4.934-30.34-5.014-30.824,0,0-.026-.559-.5-.559m9.619,8.651v22.731l5.372-.008,0-22.724Z" transform="translate(205.045 -350.469)"/></g></symbol><symbol id="icon_primera-color" viewBox="0 0 158 34.743"><path class="a" d="M240.592,752.626a13.632,13.632,0,0,0-13.7,13.568v19.883h6.37a47.086,47.086,0,0,1,.673-6.65c2.615-14.858,11.691-19.532,11.691-19.532s-7.672,9.249-7.672,19.532h2.294a13.632,13.632,0,0,0,13.7-13.568V752.626Z" transform="translate(-226.897 -752.626)"/><path class="b" d="M259.719,757.261a2.3,2.3,0,0,1-1.683-.67,2.248,2.248,0,0,1-.677-1.667,2.205,2.205,0,0,1,.677-1.628,2.3,2.3,0,0,1,1.683-.67,2.248,2.248,0,0,1,1.644.67,2.2,2.2,0,0,1,.675,1.628,2.3,2.3,0,0,1-2.319,2.337" transform="translate(-187.909 -752.626)"/><path class="b" d="M261.941,765.583a9.421,9.421,0,0,1-.791,3.83,9.909,9.909,0,0,1-5.383,5.248,10.167,10.167,0,0,1-3.937.768,8.264,8.264,0,0,1-2.373-.422,9.087,9.087,0,0,1-2.259-1v-4.521l.078.039a4.906,4.906,0,0,0,.871.8,6.408,6.408,0,0,0,1.163.67,8.118,8.118,0,0,0,1.295.458,4.841,4.841,0,0,0,1.24.173,6.088,6.088,0,0,0,4.334-1.781,6.4,6.4,0,0,0,1.3-1.915,5.776,5.776,0,0,0,.483-2.357,5.9,5.9,0,0,0-.483-2.376,6.006,6.006,0,0,0-1.334-1.936,6.493,6.493,0,0,0-1.954-1.3,5.952,5.952,0,0,0-4.678,0,6.482,6.482,0,0,0-1.952,1.3,5.977,5.977,0,0,0-1.336,1.936,5.9,5.9,0,0,0-.483,2.376v17.854h-3.983V765.583a9.518,9.518,0,0,1,.791-3.869,9.985,9.985,0,0,1,2.161-3.142,10.289,10.289,0,0,1,14.281,0,9.983,9.983,0,0,1,2.161,3.142,9.518,9.518,0,0,1,.791,3.869" transform="translate(-207.881 -748.694)"/><path class="b" d="M260.478,759.492a4.683,4.683,0,0,0-1.8.344,4.493,4.493,0,0,0-1.45.958,4.41,4.41,0,0,0-.967,1.457,4.668,4.668,0,0,0-.349,1.8V775.43h-3.983V755.7h3.983v2.453a4.992,4.992,0,0,1,.871-.939,7.717,7.717,0,0,1,1.122-.784,5.687,5.687,0,0,1,1.277-.538,4.74,4.74,0,0,1,1.295-.192h1.16v3.794Z" transform="translate(-194.857 -748.694)"/><rect class="b" width="3.983" height="19.741" transform="translate(69.798 7.006)"/><path class="b" d="M281.115,775.429v-12.8a3.065,3.065,0,0,0-.889-2.241,3.242,3.242,0,0,0-4.484,0,3.058,3.058,0,0,0-.891,2.241v12.8h-3.983v-12.8a3.036,3.036,0,0,0-.907-2.241,3.091,3.091,0,0,0-2.262-.9,3.024,3.024,0,0,0-2.243.9,3.065,3.065,0,0,0-.889,2.241v12.8h-3.983V762.749a6.5,6.5,0,0,1,.579-2.7,7.673,7.673,0,0,1,1.548-2.259,7.011,7.011,0,0,1,2.262-1.532,6.824,6.824,0,0,1,2.727-.556,6.12,6.12,0,0,1,3.073.823,5.14,5.14,0,0,1,2.07,1.974,4.035,4.035,0,0,1,.85-1.074,6.482,6.482,0,0,1,1.236-.882,7.4,7.4,0,0,1,1.489-.611,5.625,5.625,0,0,1,1.566-.23,6.824,6.824,0,0,1,2.727.556,7.27,7.27,0,0,1,3.828,3.792,6.669,6.669,0,0,1,.561,2.7v12.681Z" transform="translate(-183.784 -748.693)"/><path class="b" d="M291.583,770.736a9.858,9.858,0,0,1-2.246,2.433,11.054,11.054,0,0,1-3.023,1.648,10.084,10.084,0,0,1-3.468.613,10.4,10.4,0,0,1-7.207-2.875,9.766,9.766,0,0,1-2.189-3.142,9.385,9.385,0,0,1-.793-3.83,9.481,9.481,0,0,1,.793-3.869,9.769,9.769,0,0,1,2.189-3.142,10.4,10.4,0,0,1,7.207-2.875,9.959,9.959,0,0,1,3.041.479,10.921,10.921,0,0,1,5.009,3.354,7.96,7.96,0,0,1,1.432,2.451l-12.58,6.783-1.705-3.333,8.6-4.6a4.943,4.943,0,0,0-1.628-.958,6.064,6.064,0,0,0-2.17-.383,5.934,5.934,0,0,0-2.385.479,6.3,6.3,0,0,0-1.938,1.3,6.152,6.152,0,0,0-1.32,1.936,5.9,5.9,0,0,0-.483,2.376,5.74,5.74,0,0,0,.483,2.357,6.2,6.2,0,0,0,1.313,1.915,6.265,6.265,0,0,0,1.933,1.3,5.908,5.908,0,0,0,2.378.479,5.976,5.976,0,0,0,2.011-.344,6.376,6.376,0,0,0,1.781-.978,5.953,5.953,0,0,0,2.166-3.465l3.983.88a7.9,7.9,0,0,1-1.183,3.007" transform="translate(-168.329 -748.694)"/><path class="b" d="M291.091,759.492a4.683,4.683,0,0,0-1.8.344,4.493,4.493,0,0,0-1.45.958,4.41,4.41,0,0,0-.967,1.457,4.666,4.666,0,0,0-.347,1.8v11.39h-3.983V755.7h3.983v2.453a4.9,4.9,0,0,1,.869-.939,7.713,7.713,0,0,1,1.122-.784,5.687,5.687,0,0,1,1.277-.538,4.739,4.739,0,0,1,1.295-.192h1.16v3.794Z" transform="translate(-155.673 -748.694)"/><path class="b" d="M303.57,775.44v-9.858a5.866,5.866,0,0,0-.486-2.376,5.977,5.977,0,0,0-1.338-1.933,6.553,6.553,0,0,0-1.958-1.3,5.883,5.883,0,0,0-2.348-.479,6.1,6.1,0,0,0-2.4.479,5.993,5.993,0,0,0-1.94,1.3,6.324,6.324,0,0,0-1.3,1.933,5.866,5.866,0,0,0-.486,2.376,5.741,5.741,0,0,0,.486,2.357,6.4,6.4,0,0,0,1.3,1.915,6,6,0,0,0,1.942,1.3,6.072,6.072,0,0,0,2.405.479,5.2,5.2,0,0,0,1.261-.171,8.141,8.141,0,0,0,1.318-.461,7.036,7.036,0,0,0,1.186-.67,4.022,4.022,0,0,0,.894-.844v4.521a9.163,9.163,0,0,1-2.264,1,8.3,8.3,0,0,1-2.378.422,10.244,10.244,0,0,1-3.944-.766,9.921,9.921,0,0,1-5.394-5.248,9.741,9.741,0,0,1,0-7.7,9.92,9.92,0,0,1,5.394-5.248,10.242,10.242,0,0,1,3.944-.766,10.154,10.154,0,0,1,7.134,2.873,9.949,9.949,0,0,1,2.166,3.142,9.491,9.491,0,0,1,.793,3.869v9.858Z" transform="translate(-149.553 -748.693)"/></symbol><symbol id="icon_primera-grey" viewBox="0 0 158 34.743"><g transform="translate(-820 -408)"><path class="a" d="M240.592,752.626a13.632,13.632,0,0,0-13.7,13.568v19.883h6.37a47.086,47.086,0,0,1,.673-6.65c2.615-14.858,11.691-19.532,11.691-19.532s-7.672,9.249-7.672,19.532h2.294a13.632,13.632,0,0,0,13.7-13.568V752.626Z" transform="translate(593.103 -344.626)"/><path class="a" d="M259.719,757.261a2.3,2.3,0,0,1-1.683-.67,2.248,2.248,0,0,1-.677-1.667,2.205,2.205,0,0,1,.677-1.628,2.3,2.3,0,0,1,1.683-.67,2.248,2.248,0,0,1,1.644.67,2.2,2.2,0,0,1,.675,1.628,2.3,2.3,0,0,1-2.319,2.337" transform="translate(632.091 -344.626)"/><path class="a" d="M261.941,765.583a9.421,9.421,0,0,1-.791,3.83,9.909,9.909,0,0,1-5.383,5.248,10.167,10.167,0,0,1-3.937.768,8.264,8.264,0,0,1-2.373-.422,9.087,9.087,0,0,1-2.259-1v-4.521l.078.039a4.906,4.906,0,0,0,.871.8,6.408,6.408,0,0,0,1.163.67,8.118,8.118,0,0,0,1.295.458,4.841,4.841,0,0,0,1.24.173,6.088,6.088,0,0,0,4.334-1.781,6.4,6.4,0,0,0,1.3-1.915,5.776,5.776,0,0,0,.483-2.357,5.9,5.9,0,0,0-.483-2.376,6.006,6.006,0,0,0-1.334-1.936,6.493,6.493,0,0,0-1.954-1.3,5.952,5.952,0,0,0-4.678,0,6.482,6.482,0,0,0-1.952,1.3,5.977,5.977,0,0,0-1.336,1.936,5.9,5.9,0,0,0-.483,2.376v17.854h-3.983V765.583a9.518,9.518,0,0,1,.791-3.869,9.985,9.985,0,0,1,2.161-3.142,10.289,10.289,0,0,1,14.281,0,9.983,9.983,0,0,1,2.161,3.142,9.518,9.518,0,0,1,.791,3.869" transform="translate(612.119 -340.694)"/><path class="a" d="M260.478,759.492a4.683,4.683,0,0,0-1.8.344,4.493,4.493,0,0,0-1.45.958,4.41,4.41,0,0,0-.967,1.457,4.668,4.668,0,0,0-.349,1.8V775.43h-3.983V755.7h3.983v2.453a4.992,4.992,0,0,1,.871-.939,7.717,7.717,0,0,1,1.122-.784,5.687,5.687,0,0,1,1.277-.538,4.74,4.74,0,0,1,1.295-.192h1.16v3.794Z" transform="translate(625.143 -340.694)"/><rect class="a" width="3.983" height="19.741" transform="translate(889.798 415.006)"/><path class="a" d="M281.115,775.429v-12.8a3.065,3.065,0,0,0-.889-2.241,3.242,3.242,0,0,0-4.484,0,3.058,3.058,0,0,0-.891,2.241v12.8h-3.983v-12.8a3.036,3.036,0,0,0-.907-2.241,3.091,3.091,0,0,0-2.262-.9,3.024,3.024,0,0,0-2.243.9,3.065,3.065,0,0,0-.889,2.241v12.8h-3.983V762.749a6.5,6.5,0,0,1,.579-2.7,7.673,7.673,0,0,1,1.548-2.259,7.011,7.011,0,0,1,2.262-1.532,6.824,6.824,0,0,1,2.727-.556,6.12,6.12,0,0,1,3.073.823,5.14,5.14,0,0,1,2.07,1.974,4.035,4.035,0,0,1,.85-1.074,6.482,6.482,0,0,1,1.236-.882,7.4,7.4,0,0,1,1.489-.611,5.625,5.625,0,0,1,1.566-.23,6.824,6.824,0,0,1,2.727.556,7.27,7.27,0,0,1,3.828,3.792,6.669,6.669,0,0,1,.561,2.7v12.681Z" transform="translate(636.216 -340.693)"/><path class="a" d="M291.583,770.736a9.858,9.858,0,0,1-2.246,2.433,11.054,11.054,0,0,1-3.023,1.648,10.084,10.084,0,0,1-3.468.613,10.4,10.4,0,0,1-7.207-2.875,9.766,9.766,0,0,1-2.189-3.142,9.385,9.385,0,0,1-.793-3.83,9.481,9.481,0,0,1,.793-3.869,9.769,9.769,0,0,1,2.189-3.142,10.4,10.4,0,0,1,7.207-2.875,9.959,9.959,0,0,1,3.041.479,10.921,10.921,0,0,1,5.009,3.354,7.96,7.96,0,0,1,1.432,2.451l-12.58,6.783-1.705-3.333,8.6-4.6a4.943,4.943,0,0,0-1.628-.958,6.064,6.064,0,0,0-2.17-.383,5.934,5.934,0,0,0-2.385.479,6.3,6.3,0,0,0-1.938,1.3,6.152,6.152,0,0,0-1.32,1.936,5.9,5.9,0,0,0-.483,2.376,5.74,5.74,0,0,0,.483,2.357,6.2,6.2,0,0,0,1.313,1.915,6.265,6.265,0,0,0,1.933,1.3,5.908,5.908,0,0,0,2.378.479,5.976,5.976,0,0,0,2.011-.344,6.376,6.376,0,0,0,1.781-.978,5.953,5.953,0,0,0,2.166-3.465l3.983.88a7.9,7.9,0,0,1-1.183,3.007" transform="translate(651.671 -340.694)"/><path class="a" d="M291.091,759.492a4.683,4.683,0,0,0-1.8.344,4.493,4.493,0,0,0-1.45.958,4.41,4.41,0,0,0-.967,1.457,4.666,4.666,0,0,0-.347,1.8v11.39h-3.983V755.7h3.983v2.453a4.9,4.9,0,0,1,.869-.939,7.713,7.713,0,0,1,1.122-.784,5.687,5.687,0,0,1,1.277-.538,4.739,4.739,0,0,1,1.295-.192h1.16v3.794Z" transform="translate(664.327 -340.694)"/><path class="a" d="M303.57,775.44v-9.858a5.866,5.866,0,0,0-.486-2.376,5.977,5.977,0,0,0-1.338-1.933,6.553,6.553,0,0,0-1.958-1.3,5.883,5.883,0,0,0-2.348-.479,6.1,6.1,0,0,0-2.4.479,5.993,5.993,0,0,0-1.94,1.3,6.324,6.324,0,0,0-1.3,1.933,5.866,5.866,0,0,0-.486,2.376,5.741,5.741,0,0,0,.486,2.357,6.4,6.4,0,0,0,1.3,1.915,6,6,0,0,0,1.942,1.3,6.072,6.072,0,0,0,2.405.479,5.2,5.2,0,0,0,1.261-.171,8.141,8.141,0,0,0,1.318-.461,7.036,7.036,0,0,0,1.186-.67,4.022,4.022,0,0,0,.894-.844v4.521a9.163,9.163,0,0,1-2.264,1,8.3,8.3,0,0,1-2.378.422,10.244,10.244,0,0,1-3.944-.766,9.921,9.921,0,0,1-5.394-5.248,9.741,9.741,0,0,1,0-7.7,9.92,9.92,0,0,1,5.394-5.248,10.242,10.242,0,0,1,3.944-.766,10.154,10.154,0,0,1,7.134,2.873,9.949,9.949,0,0,1,2.166,3.142,9.491,9.491,0,0,1,.793,3.869v9.858Z" transform="translate(670.447 -340.693)"/></g></symbol><symbol id="icon_stormann-color" viewBox="0 0 158 32.252"><path class="a" d="M233.981,805.258a4.6,4.6,0,0,1-1.291,3.322,4.265,4.265,0,0,1-3.194,1.338,4,4,0,0,1-2.767-1.056,5.322,5.322,0,0,1-1.581-3.164l1.662-.382a3.275,3.275,0,0,0,.89,2.086,2.641,2.641,0,0,0,1.935.757,2.364,2.364,0,0,0,1.831-.856,3,3,0,0,0,.76-2.065,2.516,2.516,0,0,0-.689-1.788,6,6,0,0,0-2.046-1.24,7.923,7.923,0,0,1-2.8-1.73,3.427,3.427,0,0,1-.909-2.411,3.613,3.613,0,0,1,1.2-2.769,4.191,4.191,0,0,1,2.957-1.109,3.91,3.91,0,0,1,3.593,2.285l-1.4.9a2.5,2.5,0,0,0-3.9-.811,1.934,1.934,0,0,0-.7,1.5,1.737,1.737,0,0,0,.582,1.323,6.6,6.6,0,0,0,1.984,1.1,7.183,7.183,0,0,1,2.974,1.925,4.355,4.355,0,0,1,.9,2.842" transform="translate(-223.81 -785.766)"/><path class="a" d="M241.946,796.062h-3.467v13.363h-1.754V796.062h-3.467v-1.719h8.688Z" transform="translate(-214.617 -785.595)"/><path class="a" d="M253.831,802.054a6.174,6.174,0,0,0-1.624-4.342,5.383,5.383,0,0,0-7.967,0,6.63,6.63,0,0,0,0,8.684,5.383,5.383,0,0,0,7.967,0,6.173,6.173,0,0,0,1.624-4.342m1.756,0a7.828,7.828,0,0,1-2.18,5.528,6.916,6.916,0,0,1-10.361,0,8.1,8.1,0,0,1,0-11.056,6.916,6.916,0,0,1,10.361,0,7.828,7.828,0,0,1,2.18,5.528" transform="translate(-205.994 -785.765)"/><path class="a" d="M258.428,798.718q0-2.695-3.676-2.695h-.61v5.46h.764q3.524,0,3.522-2.765m2.705,10.706H259l-4.1-6.377h-.764v6.377h-1.754V794.342h2.7a5.485,5.485,0,0,1,3.653,1.12,3.883,3.883,0,0,1,1.325,3.141,4.479,4.479,0,0,1-.858,2.765,3.8,3.8,0,0,1-2.52,1.493Z" transform="translate(-192.932 -785.595)"/><path class="a" d="M275.709,809.6H273.9l-1.525-9.78-4.359,10.1-4.359-10.1-1.526,9.778h-1.811l2.592-15.408,5.1,11.572,5.1-11.572Z" transform="translate(-183.947 -785.769)"/><path class="a" d="M280.555,804.268l-2.488-6.1-2.5,6.1Zm4.233,5.5H282.9l-1.607-3.781h-6.448l-1.611,3.781h-1.871l6.7-15.726Z" transform="translate(-171.428 -785.938)"/><path class="a" d="M293.586,809.914l-9.953-11.2v10.881h-1.673v-15.4l9.951,11.2V794.51h1.675Z" transform="translate(-159.41 -785.763)"/><path class="a" d="M303.978,809.914l-9.953-11.2v10.881h-1.673v-15.4l9.951,11.2V794.51h1.675Z" transform="translate(-147.631 -785.763)"/><rect class="b" width="158" height="2.153" transform="translate(0 30.1)"/><rect class="b" width="158" height="2.153"/></symbol><symbol id="icon_stormann-grey" viewBox="0 0 158 32.252"><g transform="translate(-820 -486)"><path class="a" d="M233.981,805.258a4.6,4.6,0,0,1-1.291,3.322,4.265,4.265,0,0,1-3.194,1.338,4,4,0,0,1-2.767-1.056,5.322,5.322,0,0,1-1.581-3.164l1.662-.382a3.275,3.275,0,0,0,.89,2.086,2.641,2.641,0,0,0,1.935.757,2.364,2.364,0,0,0,1.831-.856,3,3,0,0,0,.76-2.065,2.516,2.516,0,0,0-.689-1.788,6,6,0,0,0-2.046-1.24,7.923,7.923,0,0,1-2.8-1.73,3.427,3.427,0,0,1-.909-2.411,3.613,3.613,0,0,1,1.2-2.769,4.191,4.191,0,0,1,2.957-1.109,3.91,3.91,0,0,1,3.593,2.285l-1.4.9a2.5,2.5,0,0,0-3.9-.811,1.934,1.934,0,0,0-.7,1.5,1.737,1.737,0,0,0,.582,1.323,6.6,6.6,0,0,0,1.984,1.1,7.183,7.183,0,0,1,2.974,1.925,4.355,4.355,0,0,1,.9,2.842" transform="translate(596.19 -299.766)"/><path class="a" d="M241.946,796.062h-3.467v13.363h-1.754V796.062h-3.467v-1.719h8.688Z" transform="translate(605.383 -299.595)"/><path class="a" d="M253.831,802.054a6.174,6.174,0,0,0-1.624-4.342,5.383,5.383,0,0,0-7.967,0,6.63,6.63,0,0,0,0,8.684,5.383,5.383,0,0,0,7.967,0,6.173,6.173,0,0,0,1.624-4.342m1.756,0a7.828,7.828,0,0,1-2.18,5.528,6.916,6.916,0,0,1-10.361,0,8.1,8.1,0,0,1,0-11.056,6.916,6.916,0,0,1,10.361,0,7.828,7.828,0,0,1,2.18,5.528" transform="translate(614.006 -299.765)"/><path class="a" d="M258.428,798.718q0-2.695-3.676-2.695h-.61v5.46h.764q3.524,0,3.522-2.765m2.705,10.706H259l-4.1-6.377h-.764v6.377h-1.754V794.342h2.7a5.485,5.485,0,0,1,3.653,1.12,3.883,3.883,0,0,1,1.325,3.141,4.479,4.479,0,0,1-.858,2.765,3.8,3.8,0,0,1-2.52,1.493Z" transform="translate(627.068 -299.595)"/><path class="a" d="M275.709,809.6H273.9l-1.525-9.78-4.359,10.1-4.359-10.1-1.526,9.778h-1.811l2.592-15.408,5.1,11.572,5.1-11.572Z" transform="translate(636.053 -299.769)"/><path class="a" d="M280.555,804.268l-2.488-6.1-2.5,6.1Zm4.233,5.5H282.9l-1.607-3.781h-6.448l-1.611,3.781h-1.871l6.7-15.726Z" transform="translate(648.572 -299.938)"/><path class="a" d="M293.586,809.914l-9.953-11.2v10.881h-1.673v-15.4l9.951,11.2V794.51h1.675Z" transform="translate(660.59 -299.763)"/><path class="a" d="M303.978,809.914l-9.953-11.2v10.881h-1.673v-15.4l9.951,11.2V794.51h1.675Z" transform="translate(672.369 -299.763)"/><rect class="a" width="158" height="2.153" transform="translate(820 516.1)"/><rect class="a" width="158" height="2.153" transform="translate(820 486)"/></g></symbol><symbol id="icon_warranty-logo" viewBox="0 0 211 254.508"><g transform="translate(-291 -47)"><path class="a" d="M396.56,49C386.493,63.288,319.355,92.579,293,92.579v103.5c0,48.656,97.748,101.893,103.5,103.429,5.752-1.536,103.5-58.488,103.5-97.982V92.579C471.249,92.579,406.621,63.288,396.56,49Z" transform="translate(0 0)"/><path class="b" d="M312,218.974c4.538-1.2,81.711-50.808,81.711-81.711V61" transform="translate(84.5 53.368)"/><path class="b" d="M378.711,55C370.768,66.178,317.8,87.684,297,87.684v81.711" transform="translate(17.789 26.684)"/><path class="c" d="M306,94.237l21.789,21.789L371.369,67" transform="translate(57.816 80.053)"/></g></symbol><symbol id="icon_wolter-color" viewBox="0 0 158 42.307"><g transform="translate(0)"><path class="a" d="M268.771,824.37V822.9a11.652,11.652,0,0,0,5.293-4.692,12.5,12.5,0,0,0,1.351-3.155,7.919,7.919,0,0,0,.392-2.255,15.387,15.387,0,0,0,0-2.344,17.99,17.99,0,0,0-.482-2.467,9.843,9.843,0,0,0-1.022-2.375,18.3,18.3,0,0,0-2.586-3.156,10.426,10.426,0,0,0-2.945-1.864v-5.56a19.009,19.009,0,0,1,3.908,1.683,17.877,17.877,0,0,1,5.742,5.591,14.387,14.387,0,0,1,2.375,6.042,17.877,17.877,0,0,0,.6-4.3,17.01,17.01,0,0,0-.451-3.879,20.725,20.725,0,0,0-1.773-4.39,26.281,26.281,0,0,0-2.284-3.185,18.4,18.4,0,0,0-3.577-2.976,13.343,13.343,0,0,0-3.368-1.473,8,8,0,0,0-1.172-.271v-5.381a18.9,18.9,0,0,1,11.932,6.524,22.1,22.1,0,0,1,5.983,15.089,20.669,20.669,0,0,1-5.921,14.461,18.506,18.506,0,0,1-11.994,5.8m0-2.916a10.989,10.989,0,0,0,2.555-1.923,11.391,11.391,0,0,0,3.247-8.267,12.37,12.37,0,0,0-1.324-4.72,10.924,10.924,0,0,0-2.674-3.216,11.94,11.94,0,0,0-1.8-1.233v7.577a5.847,5.847,0,0,1,0,4.209Zm0-38.959v5.381a22.917,22.917,0,0,0-2.436-.3H256.116v7.969c.24-.062.54-.152.782-.211a5.856,5.856,0,0,1,.811-.3,20.74,20.74,0,0,1,5.621-.753,20.066,20.066,0,0,1,5.32.722l.121.031v5.56a10.815,10.815,0,0,0-1.262-.452,16.671,16.671,0,0,0-4.87-.692,19.8,19.8,0,0,0-6.344,1.683,17.163,17.163,0,0,0-5.441,3.7h.06l-.06-22.487h15.6a19.513,19.513,0,0,1,2.315.15m0,19.6a10.56,10.56,0,0,0-2.436-.963,13.558,13.558,0,0,0-3.276-.328,15.2,15.2,0,0,0-3.216.63,11.76,11.76,0,0,0-3.187,1.894,10.567,10.567,0,0,0-3.7,5.712,10.258,10.258,0,0,0,2.2,9.708,10.684,10.684,0,0,0,5.712,3.641,11.856,11.856,0,0,0,3.247.359,12.733,12.733,0,0,0,3.758-.872c.3-.119.6-.269.9-.421V813.88a5.233,5.233,0,0,1-1.233,1.8,5.546,5.546,0,0,1-9.469-3.908,5.543,5.543,0,0,1,5.562-5.562,5.477,5.477,0,0,1,3.908,1.623,5.947,5.947,0,0,1,1.233,1.835Zm0,20.8v1.472a15.83,15.83,0,0,1-2.405.09,17.6,17.6,0,0,1-4.238-.421l-.029-.06h.058a11.771,11.771,0,0,0,5.683-.722c.3-.121.63-.24.932-.359m-40.312,1.7v-2.878l1.7-5.614a6.021,6.021,0,0,1,1.556-2.361,5.4,5.4,0,0,1,3.256-1.083h11.89l-.851,2.828H240.82a1.315,1.315,0,0,0-.991.286,4.569,4.569,0,0,0-.519,1.084L236.95,824.6Zm0-5.946.709-2.357a4.689,4.689,0,0,0,.14-1.889,2.172,2.172,0,0,0-.849-1.226Zm0-5.472v5.472l-.471,1.416H217.181l.851-2.83h1.556l.33-.9a1.056,1.056,0,0,0-.142-.659l-.425-.192h-.377c-.425,0-.661,0-.849.192a2.666,2.666,0,0,0-.567.8l-1.178,4.151a1.025,1.025,0,0,0,0,.755.577.577,0,0,0,.517.377h10.616l-.9,2.832v.048H209.4a5.153,5.153,0,0,1-1.462-.332v-6.509q.141-.568.282-.991a7.136,7.136,0,0,1,1.792-2.83,4.224,4.224,0,0,1,3.208-1.322h13.164a3.771,3.771,0,0,1,1.792.376l.282.142m0,8.54-.9,2.878h.9Zm-20.522-6.23h.188l.943-2.922h-1.132Zm0-2.922v2.922h-3.917c-.377,1.134-.613,2.031-.755,2.549-.188.424-.282.9-.471,1.274-.094.426-.236.9-.33,1.274-.142.709.046,1.039.8,1.039h2.974l-.9,2.972h-8.964a4.831,4.831,0,0,1-1.6-.142,1.432,1.432,0,0,1-.661-.092v-7.456l1.368-4.482,10.995-4.624-1.558,4.766Zm0,5.237c-.284.847-.613,1.887-.9,3.066-.565,1.746-.282,2.878.9,3.443ZM194.112,813.8l1.462-4.811h-1.462Zm0-4.811V813.8l-3.349,10.8h-8.445v-3.208l3.821-12.407Zm0,7.925-1.32,4.15a2.608,2.608,0,0,0,.33,2.644,1.958,1.958,0,0,0,.989.663Zm-11.794,1.556.707-2.357q.778-2.409-.707-3.114Zm0-5.471v5.471l-.849,2.69a4.367,4.367,0,0,1-4.53,3.445H172.22v-3.068a.868.868,0,0,0,.33-.611l1.51-4.718c.094-.519,0-.711-.613-.711h-.567a1.374,1.374,0,0,0-.661.144v-2.972h8.3a3.926,3.926,0,0,1,1.794.33m0,8.4-.991,3.208h.991Zm-20.43-8.728h.943l-.943,3.206Zm10.332,0h-5a4.349,4.349,0,0,0-4.482,3.445l-.849,2.736v5.425a3.457,3.457,0,0,0,1.652.33h8.68v-3.068a1.015,1.015,0,0,1-.659.236H170.9c-.519,0-.615-.331-.519-.847L171.8,816.2a.683.683,0,0,1,.425-.567Zm-31.563,0-2.407,7.925c-.282.709-.092,1.039.426,1.039h.282c.471,0,.849-.331,1.132-1.039l2.359-7.925h9.295l-2.405,7.925c-.282.709-.094,1.039.471,1.039H150c.519,0,.9-.331,1.178-1.039l2.407-7.925h8.3v3.206l-1.556,5.189a4.353,4.353,0,0,1-4.484,3.589h-24.58c-2.217,0-3.018-1.182-2.359-3.589l2.642-8.4Zm21.231,6.18-.707,2.311q-.778,2.406.707,3.114Z" transform="translate(-128.686 -782.344)"/></g></symbol><symbol id="icon_wolter-grey" viewBox="0 0 158 42.306"><g transform="translate(-257.16 -777)"><path class="a" d="M268.771,824.37V822.9a11.652,11.652,0,0,0,5.293-4.692,12.5,12.5,0,0,0,1.351-3.155,7.919,7.919,0,0,0,.392-2.255,15.387,15.387,0,0,0,0-2.344,17.99,17.99,0,0,0-.482-2.467,9.843,9.843,0,0,0-1.022-2.375,18.3,18.3,0,0,0-2.586-3.156,10.426,10.426,0,0,0-2.945-1.864v-5.56a19.009,19.009,0,0,1,3.908,1.683,17.877,17.877,0,0,1,5.742,5.591,14.387,14.387,0,0,1,2.375,6.042,17.877,17.877,0,0,0,.6-4.3,17.01,17.01,0,0,0-.451-3.879,20.725,20.725,0,0,0-1.773-4.39,26.281,26.281,0,0,0-2.284-3.185,18.4,18.4,0,0,0-3.577-2.976,13.343,13.343,0,0,0-3.368-1.473,8,8,0,0,0-1.172-.271v-5.381a18.9,18.9,0,0,1,11.932,6.524,22.1,22.1,0,0,1,5.983,15.089,20.669,20.669,0,0,1-5.921,14.461,18.506,18.506,0,0,1-11.994,5.8m0-2.916a10.989,10.989,0,0,0,2.555-1.923,11.391,11.391,0,0,0,3.247-8.267,12.37,12.37,0,0,0-1.324-4.72,10.924,10.924,0,0,0-2.674-3.216,11.94,11.94,0,0,0-1.8-1.233v7.577a5.847,5.847,0,0,1,0,4.209Zm0-38.959v5.381a22.917,22.917,0,0,0-2.436-.3H256.116v7.969c.24-.062.54-.152.782-.211a5.856,5.856,0,0,1,.811-.3,20.74,20.74,0,0,1,5.621-.753,20.066,20.066,0,0,1,5.32.722l.121.031v5.56a10.815,10.815,0,0,0-1.262-.452,16.671,16.671,0,0,0-4.87-.692,19.8,19.8,0,0,0-6.344,1.683,17.163,17.163,0,0,0-5.441,3.7h.06l-.06-22.487h15.6a19.513,19.513,0,0,1,2.315.15m0,19.6a10.56,10.56,0,0,0-2.436-.963,13.558,13.558,0,0,0-3.276-.328,15.2,15.2,0,0,0-3.216.63,11.76,11.76,0,0,0-3.187,1.894,10.567,10.567,0,0,0-3.7,5.712,10.258,10.258,0,0,0,2.2,9.708,10.684,10.684,0,0,0,5.712,3.641,11.856,11.856,0,0,0,3.247.359,12.733,12.733,0,0,0,3.758-.872c.3-.119.6-.269.9-.421V813.88a5.233,5.233,0,0,1-1.233,1.8,5.546,5.546,0,0,1-9.469-3.908,5.543,5.543,0,0,1,5.562-5.562,5.477,5.477,0,0,1,3.908,1.623,5.947,5.947,0,0,1,1.233,1.835Zm0,20.8v1.472a15.83,15.83,0,0,1-2.405.09,17.6,17.6,0,0,1-4.238-.421l-.029-.06h.058a11.771,11.771,0,0,0,5.683-.722c.3-.121.63-.24.932-.359m-40.312,1.7v-2.878l1.7-5.614a6.021,6.021,0,0,1,1.556-2.361,5.4,5.4,0,0,1,3.256-1.083h11.89l-.851,2.828H240.82a1.315,1.315,0,0,0-.991.286,4.569,4.569,0,0,0-.519,1.084L236.95,824.6Zm0-5.946.709-2.357a4.689,4.689,0,0,0,.14-1.889,2.172,2.172,0,0,0-.849-1.226Zm0-5.472v5.472l-.471,1.416H217.181l.851-2.83h1.556l.33-.9a1.056,1.056,0,0,0-.142-.659l-.425-.192h-.377c-.425,0-.661,0-.849.192a2.666,2.666,0,0,0-.567.8l-1.178,4.151a1.025,1.025,0,0,0,0,.755.577.577,0,0,0,.517.377h10.616l-.9,2.832v.048H209.4a5.153,5.153,0,0,1-1.462-.332v-6.509q.141-.568.282-.991a7.136,7.136,0,0,1,1.792-2.83,4.224,4.224,0,0,1,3.208-1.322h13.164a3.771,3.771,0,0,1,1.792.376l.282.142m0,8.54-.9,2.878h.9Zm-20.522-6.23h.188l.943-2.922h-1.132Zm0-2.922v2.922h-3.917c-.377,1.134-.613,2.031-.755,2.549-.188.424-.282.9-.471,1.274-.094.426-.236.9-.33,1.274-.142.709.046,1.039.8,1.039h2.974l-.9,2.972h-8.964a4.831,4.831,0,0,1-1.6-.142,1.432,1.432,0,0,1-.661-.092v-7.456l1.368-4.482,10.995-4.624-1.558,4.766Zm0,5.237c-.284.847-.613,1.887-.9,3.066-.565,1.746-.282,2.878.9,3.443ZM194.112,813.8l1.462-4.811h-1.462Zm0-4.811V813.8l-3.349,10.8h-8.445v-3.208l3.821-12.407Zm0,7.925-1.32,4.15a2.608,2.608,0,0,0,.33,2.644,1.958,1.958,0,0,0,.989.663Zm-11.794,1.556.707-2.357q.778-2.409-.707-3.114Zm0-5.471v5.471l-.849,2.69a4.367,4.367,0,0,1-4.53,3.445H172.22v-3.068a.868.868,0,0,0,.33-.611l1.51-4.718c.094-.519,0-.711-.613-.711h-.567a1.374,1.374,0,0,0-.661.144v-2.972h8.3a3.926,3.926,0,0,1,1.794.33m0,8.4-.991,3.208h.991Zm-20.43-8.728h.943l-.943,3.206Zm10.332,0h-5a4.349,4.349,0,0,0-4.482,3.445l-.849,2.736v5.425a3.457,3.457,0,0,0,1.652.33h8.68v-3.068a1.015,1.015,0,0,1-.659.236H170.9c-.519,0-.615-.331-.519-.847L171.8,816.2a.683.683,0,0,1,.425-.567Zm-31.563,0-2.407,7.925c-.282.709-.092,1.039.426,1.039h.282c.471,0,.849-.331,1.132-1.039l2.359-7.925h9.295l-2.405,7.925c-.282.709-.094,1.039.471,1.039H150c.519,0,.9-.331,1.178-1.039l2.407-7.925h8.3v3.206l-1.556,5.189a4.353,4.353,0,0,1-4.484,3.589h-24.58c-2.217,0-3.018-1.182-2.359-3.589l2.642-8.4Zm21.231,6.18-.707,2.311q-.778,2.406.707,3.114Z" transform="translate(128.474 -5.344)"/></g></symbol></svg>