<svg xmlns="http://www.w3.org/2000/svg" xmlns:xlink="http://www.w3.org/1999/xlink"><defs><style>.a{fill:#00adef;fill-rule:evenodd;}</style><style>.a,.b,.c{fill:none;stroke-width:4px;}.a,.c{stroke:#00adef;}.a,.b{stroke-linejoin:round;}.b{stroke:#505050;}.c{stroke-miterlimit:10;}</style></defs><symbol id="icon_checked" viewBox="0 0 17.414 11.414"><path class="a" d="M17.427,1.427l-10,10-.207-.207-.207.207-7-6L1.427,4.012,7.22,8.805,16.013.012Z" transform="translate(-0.013 -0.012)"/></symbol><symbol id="icon_warranty-logo" viewBox="0 0 211 254.508"><g transform="translate(-291 -47)"><path class="a" d="M396.56,49C386.493,63.288,319.355,92.579,293,92.579v103.5c0,48.656,97.748,101.893,103.5,103.429,5.752-1.536,103.5-58.488,103.5-97.982V92.579C471.249,92.579,406.621,63.288,396.56,49Z" transform="translate(0 0)"/><path class="b" d="M312,218.974c4.538-1.2,81.711-50.808,81.711-81.711V61" transform="translate(84.5 53.368)"/><path class="b" d="M378.711,55C370.768,66.178,317.8,87.684,297,87.684v81.711" transform="translate(17.789 26.684)"/><path class="c" d="M306,94.237l21.789,21.789L371.369,67" transform="translate(57.816 80.053)"/></g></symbol></svg>