<svg xmlns="http://www.w3.org/2000/svg" width="21" height="17.968" viewBox="0 0 21 17.968"><defs><style>.a{fill:#29aae2;}</style></defs><g transform="translate(-2 -3.032)"><path class="a" d="M22.465,15.213a.536.536,0,0,0-.535.535v2.044a2.141,2.141,0,0,1-2.138,2.139H5.208A2.141,2.141,0,0,1,3.07,17.792V15.748a.535.535,0,0,0-1.07,0v2.044A3.212,3.212,0,0,0,5.208,21H19.793A3.211,3.211,0,0,0,23,17.792V15.748A.536.536,0,0,0,22.465,15.213Z"/><path class="a" d="M17.911,10.259a.535.535,0,0,0-.755-.043L13.035,13.9V3.535a.536.536,0,0,0-1.07,0V13.9L7.844,10.216a.535.535,0,1,0-.713.8l4.478,4a1.332,1.332,0,0,0,1.78,0l4.478-4a.534.534,0,0,0,.044-.754Z"/></g></svg>