<svg xmlns="http://www.w3.org/2000/svg" width="158" height="32.252" viewBox="0 0 158 32.252"><defs><style>.a{fill:#8f8f8f;}</style></defs><g transform="translate(-820 -486)"><path class="a" d="M233.981,805.258a4.6,4.6,0,0,1-1.291,3.322,4.265,4.265,0,0,1-3.194,1.338,4,4,0,0,1-2.767-1.056,5.322,5.322,0,0,1-1.581-3.164l1.662-.382a3.275,3.275,0,0,0,.89,2.086,2.641,2.641,0,0,0,1.935.757,2.364,2.364,0,0,0,1.831-.856,3,3,0,0,0,.76-2.065,2.516,2.516,0,0,0-.689-1.788,6,6,0,0,0-2.046-1.24,7.923,7.923,0,0,1-2.8-1.73,3.427,3.427,0,0,1-.909-2.411,3.613,3.613,0,0,1,1.2-2.769,4.191,4.191,0,0,1,2.957-1.109,3.91,3.91,0,0,1,3.593,2.285l-1.4.9a2.5,2.5,0,0,0-3.9-.811,1.934,1.934,0,0,0-.7,1.5,1.737,1.737,0,0,0,.582,1.323,6.6,6.6,0,0,0,1.984,1.1,7.183,7.183,0,0,1,2.974,1.925,4.355,4.355,0,0,1,.9,2.842" transform="translate(596.19 -299.766)"/><path class="a" d="M241.946,796.062h-3.467v13.363h-1.754V796.062h-3.467v-1.719h8.688Z" transform="translate(605.383 -299.595)"/><path class="a" d="M253.831,802.054a6.174,6.174,0,0,0-1.624-4.342,5.383,5.383,0,0,0-7.967,0,6.63,6.63,0,0,0,0,8.684,5.383,5.383,0,0,0,7.967,0,6.173,6.173,0,0,0,1.624-4.342m1.756,0a7.828,7.828,0,0,1-2.18,5.528,6.916,6.916,0,0,1-10.361,0,8.1,8.1,0,0,1,0-11.056,6.916,6.916,0,0,1,10.361,0,7.828,7.828,0,0,1,2.18,5.528" transform="translate(614.006 -299.765)"/><path class="a" d="M258.428,798.718q0-2.695-3.676-2.695h-.61v5.46h.764q3.524,0,3.522-2.765m2.705,10.706H259l-4.1-6.377h-.764v6.377h-1.754V794.342h2.7a5.485,5.485,0,0,1,3.653,1.12,3.883,3.883,0,0,1,1.325,3.141,4.479,4.479,0,0,1-.858,2.765,3.8,3.8,0,0,1-2.52,1.493Z" transform="translate(627.068 -299.595)"/><path class="a" d="M275.709,809.6H273.9l-1.525-9.78-4.359,10.1-4.359-10.1-1.526,9.778h-1.811l2.592-15.408,5.1,11.572,5.1-11.572Z" transform="translate(636.053 -299.769)"/><path class="a" d="M280.555,804.268l-2.488-6.1-2.5,6.1Zm4.233,5.5H282.9l-1.607-3.781h-6.448l-1.611,3.781h-1.871l6.7-15.726Z" transform="translate(648.572 -299.938)"/><path class="a" d="M293.586,809.914l-9.953-11.2v10.881h-1.673v-15.4l9.951,11.2V794.51h1.675Z" transform="translate(660.59 -299.763)"/><path class="a" d="M303.978,809.914l-9.953-11.2v10.881h-1.673v-15.4l9.951,11.2V794.51h1.675Z" transform="translate(672.369 -299.763)"/><rect class="a" width="158" height="2.153" transform="translate(820 516.1)"/><rect class="a" width="158" height="2.153" transform="translate(820 486)"/></g></svg>