<svg xmlns="http://www.w3.org/2000/svg" width="158" height="34.743" viewBox="0 0 158 34.743"><defs><style>.a{fill:#8f8f8f;}</style></defs><g transform="translate(-820 -408)"><path class="a" d="M240.592,752.626a13.632,13.632,0,0,0-13.7,13.568v19.883h6.37a47.086,47.086,0,0,1,.673-6.65c2.615-14.858,11.691-19.532,11.691-19.532s-7.672,9.249-7.672,19.532h2.294a13.632,13.632,0,0,0,13.7-13.568V752.626Z" transform="translate(593.103 -344.626)"/><path class="a" d="M259.719,757.261a2.3,2.3,0,0,1-1.683-.67,2.248,2.248,0,0,1-.677-1.667,2.205,2.205,0,0,1,.677-1.628,2.3,2.3,0,0,1,1.683-.67,2.248,2.248,0,0,1,1.644.67,2.2,2.2,0,0,1,.675,1.628,2.3,2.3,0,0,1-2.319,2.337" transform="translate(632.091 -344.626)"/><path class="a" d="M261.941,765.583a9.421,9.421,0,0,1-.791,3.83,9.909,9.909,0,0,1-5.383,5.248,10.167,10.167,0,0,1-3.937.768,8.264,8.264,0,0,1-2.373-.422,9.087,9.087,0,0,1-2.259-1v-4.521l.078.039a4.906,4.906,0,0,0,.871.8,6.408,6.408,0,0,0,1.163.67,8.118,8.118,0,0,0,1.295.458,4.841,4.841,0,0,0,1.24.173,6.088,6.088,0,0,0,4.334-1.781,6.4,6.4,0,0,0,1.3-1.915,5.776,5.776,0,0,0,.483-2.357,5.9,5.9,0,0,0-.483-2.376,6.006,6.006,0,0,0-1.334-1.936,6.493,6.493,0,0,0-1.954-1.3,5.952,5.952,0,0,0-4.678,0,6.482,6.482,0,0,0-1.952,1.3,5.977,5.977,0,0,0-1.336,1.936,5.9,5.9,0,0,0-.483,2.376v17.854h-3.983V765.583a9.518,9.518,0,0,1,.791-3.869,9.985,9.985,0,0,1,2.161-3.142,10.289,10.289,0,0,1,14.281,0,9.983,9.983,0,0,1,2.161,3.142,9.518,9.518,0,0,1,.791,3.869" transform="translate(612.119 -340.694)"/><path class="a" d="M260.478,759.492a4.683,4.683,0,0,0-1.8.344,4.493,4.493,0,0,0-1.45.958,4.41,4.41,0,0,0-.967,1.457,4.668,4.668,0,0,0-.349,1.8V775.43h-3.983V755.7h3.983v2.453a4.992,4.992,0,0,1,.871-.939,7.717,7.717,0,0,1,1.122-.784,5.687,5.687,0,0,1,1.277-.538,4.74,4.74,0,0,1,1.295-.192h1.16v3.794Z" transform="translate(625.143 -340.694)"/><rect class="a" width="3.983" height="19.741" transform="translate(889.798 415.006)"/><path class="a" d="M281.115,775.429v-12.8a3.065,3.065,0,0,0-.889-2.241,3.242,3.242,0,0,0-4.484,0,3.058,3.058,0,0,0-.891,2.241v12.8h-3.983v-12.8a3.036,3.036,0,0,0-.907-2.241,3.091,3.091,0,0,0-2.262-.9,3.024,3.024,0,0,0-2.243.9,3.065,3.065,0,0,0-.889,2.241v12.8h-3.983V762.749a6.5,6.5,0,0,1,.579-2.7,7.673,7.673,0,0,1,1.548-2.259,7.011,7.011,0,0,1,2.262-1.532,6.824,6.824,0,0,1,2.727-.556,6.12,6.12,0,0,1,3.073.823,5.14,5.14,0,0,1,2.07,1.974,4.035,4.035,0,0,1,.85-1.074,6.482,6.482,0,0,1,1.236-.882,7.4,7.4,0,0,1,1.489-.611,5.625,5.625,0,0,1,1.566-.23,6.824,6.824,0,0,1,2.727.556,7.27,7.27,0,0,1,3.828,3.792,6.669,6.669,0,0,1,.561,2.7v12.681Z" transform="translate(636.216 -340.693)"/><path class="a" d="M291.583,770.736a9.858,9.858,0,0,1-2.246,2.433,11.054,11.054,0,0,1-3.023,1.648,10.084,10.084,0,0,1-3.468.613,10.4,10.4,0,0,1-7.207-2.875,9.766,9.766,0,0,1-2.189-3.142,9.385,9.385,0,0,1-.793-3.83,9.481,9.481,0,0,1,.793-3.869,9.769,9.769,0,0,1,2.189-3.142,10.4,10.4,0,0,1,7.207-2.875,9.959,9.959,0,0,1,3.041.479,10.921,10.921,0,0,1,5.009,3.354,7.96,7.96,0,0,1,1.432,2.451l-12.58,6.783-1.705-3.333,8.6-4.6a4.943,4.943,0,0,0-1.628-.958,6.064,6.064,0,0,0-2.17-.383,5.934,5.934,0,0,0-2.385.479,6.3,6.3,0,0,0-1.938,1.3,6.152,6.152,0,0,0-1.32,1.936,5.9,5.9,0,0,0-.483,2.376,5.74,5.74,0,0,0,.483,2.357,6.2,6.2,0,0,0,1.313,1.915,6.265,6.265,0,0,0,1.933,1.3,5.908,5.908,0,0,0,2.378.479,5.976,5.976,0,0,0,2.011-.344,6.376,6.376,0,0,0,1.781-.978,5.953,5.953,0,0,0,2.166-3.465l3.983.88a7.9,7.9,0,0,1-1.183,3.007" transform="translate(651.671 -340.694)"/><path class="a" d="M291.091,759.492a4.683,4.683,0,0,0-1.8.344,4.493,4.493,0,0,0-1.45.958,4.41,4.41,0,0,0-.967,1.457,4.666,4.666,0,0,0-.347,1.8v11.39h-3.983V755.7h3.983v2.453a4.9,4.9,0,0,1,.869-.939,7.713,7.713,0,0,1,1.122-.784,5.687,5.687,0,0,1,1.277-.538,4.739,4.739,0,0,1,1.295-.192h1.16v3.794Z" transform="translate(664.327 -340.694)"/><path class="a" d="M303.57,775.44v-9.858a5.866,5.866,0,0,0-.486-2.376,5.977,5.977,0,0,0-1.338-1.933,6.553,6.553,0,0,0-1.958-1.3,5.883,5.883,0,0,0-2.348-.479,6.1,6.1,0,0,0-2.4.479,5.993,5.993,0,0,0-1.94,1.3,6.324,6.324,0,0,0-1.3,1.933,5.866,5.866,0,0,0-.486,2.376,5.741,5.741,0,0,0,.486,2.357,6.4,6.4,0,0,0,1.3,1.915,6,6,0,0,0,1.942,1.3,6.072,6.072,0,0,0,2.405.479,5.2,5.2,0,0,0,1.261-.171,8.141,8.141,0,0,0,1.318-.461,7.036,7.036,0,0,0,1.186-.67,4.022,4.022,0,0,0,.894-.844v4.521a9.163,9.163,0,0,1-2.264,1,8.3,8.3,0,0,1-2.378.422,10.244,10.244,0,0,1-3.944-.766,9.921,9.921,0,0,1-5.394-5.248,9.741,9.741,0,0,1,0-7.7,9.92,9.92,0,0,1,5.394-5.248,10.242,10.242,0,0,1,3.944-.766,10.154,10.154,0,0,1,7.134,2.873,9.949,9.949,0,0,1,2.166,3.142,9.491,9.491,0,0,1,.793,3.869v9.858Z" transform="translate(670.447 -340.693)"/></g></svg>